<?xml version="1.0" standalone="no"?>
 <!DOCTYPE svg PUBLIC "-//W3C//DTD SVG 1.1//EN" 
 "http://www.w3.org/Graphics/SVG/1.1/DTD/svg11.dtd"> 
<svg xmlns="http://www.w3.org/2000/svg" version="1.1" 
    width="10.9677cm" height="5.23748cm" viewBox="0 0 43180 20620 ">
<title>SVG Picture created as AtariPunkConsole-F.Paste.svg date 2017/06/05 14:58:07 </title>
  <desc>Picture generated by PCBNEW </desc>
<g style="fill:#000000; fill-opacity:1;stroke:#000000; stroke-opacity:1;
stroke-linecap:round; stroke-linejoin:round; "
 transform="translate(0 0) scale(1 1)">
</g>
<g style="fill:#000000; fill-opacity:0.0; 
stroke:#000000; stroke-width:-0.000393701; stroke-opacity:1; 
stroke-linecap:round; stroke-linejoin:round;">
</g>
<g style="fill:#000000; fill-opacity:0.0; 
stroke:#000000; stroke-width:59.0551; stroke-opacity:1; 
stroke-linecap:round; stroke-linejoin:round;">
<path d="M3877 1850
L3877 18779
" />
<path d="M39311 1850
L3877 1850
" />
<path d="M39311 18779
L39311 1850
" />
<path d="M3877 18779
L39311 18779
" />
</g>
<g style="fill:#000000; fill-opacity:0.0; 
stroke:#000000; stroke-width:0; stroke-opacity:1; 
stroke-linecap:round; stroke-linejoin:round;">
</g>
<g style="fill:#000000; fill-opacity:1.0; 
stroke:#000000; stroke-width:0; stroke-opacity:1; 
stroke-linecap:round; stroke-linejoin:round;">
<polyline style="fill-rule:evenodd;"
points="35114,11446
35783,11446
35783,12745
35114,12745
35114,11446
" /> 
<polyline style="fill-rule:evenodd;"
points="35114,13612
35783,13612
35783,14911
35114,14911
35114,13612
" /> 
<polyline style="fill-rule:evenodd;"
points="36753,13495
37462,13495
37462,13810
36753,13810
36753,13495
" /> 
<polyline style="fill-rule:evenodd;"
points="36753,14047
37462,14047
37462,14362
36753,14362
36753,14047
" /> 
<polyline style="fill-rule:evenodd;"
points="37935,13771
38644,13771
38644,14086
37935,14086
37935,13771
" /> 
<polyline style="fill-rule:evenodd;"
points="35684,9986
35212,9986
35212,9395
35684,9395
35684,9986
" /> 
<polyline style="fill-rule:evenodd;"
points="35684,8962
35212,8962
35212,8371
35684,8371
35684,8962
" /> 
</g> 
</svg>
