<?xml version="1.0" standalone="no"?>
 <!DOCTYPE svg PUBLIC "-//W3C//DTD SVG 1.1//EN" 
 "http://www.w3.org/Graphics/SVG/1.1/DTD/svg11.dtd"> 
<svg xmlns="http://www.w3.org/2000/svg" version="1.1" 
    width="29.7002cm" height="21.0007cm" viewBox="0 0 116930 82680 ">
<title>SVG Picture created as AtariPunkConsole-F.SilkS.svg date 2017/07/17 14:07:39 </title>
  <desc>Picture generated by PCBNEW </desc>
<g style="fill:#000000; fill-opacity:1;stroke:#000000; stroke-opacity:1;
stroke-linecap:round; stroke-linejoin:round; "
 transform="translate(0 0) scale(1 1)">
</g>
<g style="fill:#000000; fill-opacity:0.0; 
stroke:#000000; stroke-width:-0.000393701; stroke-opacity:1; 
stroke-linecap:round; stroke-linejoin:round;">
</g>
<g style="fill:#000000; fill-opacity:0.0; 
stroke:#000000; stroke-width:59.0551; stroke-opacity:1; 
stroke-linecap:round; stroke-linejoin:round;">
<path d="M50479 33098
L50779 33098
" />
<path d="M50629 33248
L50629 32949
" />
<path d="M51625 35101
L51644 35044
L51662 35026
L51700 35007
L51756 35007
L51794 35026
L51812 35044
L51831 35082
L51831 35232
L51437 35232
L51437 35101
L51456 35063
L51475 35044
L51512 35026
L51550 35026
L51587 35044
L51606 35063
L51625 35101
L51625 35232
" />
<path d="M51831 34670
L51625 34670
L51587 34688
L51569 34726
L51569 34801
L51587 34838
" />
<path d="M51812 34670
L51831 34707
L51831 34801
L51812 34838
L51775 34857
L51737 34857
L51700 34838
L51681 34801
L51681 34707
L51662 34670
" />
<path d="M51569 34538
L51569 34388
" />
<path d="M51437 34482
L51775 34482
L51812 34463
L51831 34426
L51831 34388
" />
<path d="M51831 34257
L51437 34257
" />
<path d="M51569 34070
L51831 34070
" />
<path d="M51606 34070
L51587 34051
L51569 34013
L51569 33957
L51587 33920
L51625 33901
L51831 33901
" />
<path d="M35359 32353
L35228 32165
" />
<path d="M35134 32353
L35134 31959
L35284 31959
L35322 31978
L35340 31997
L35359 32034
L35359 32090
L35340 32128
L35322 32147
L35284 32165
L35134 32165
" />
<path d="M35678 32334
L35640 32353
L35565 32353
L35528 32334
L35509 32297
L35509 32147
L35528 32109
L35565 32090
L35640 32090
L35678 32109
L35697 32147
L35697 32184
L35509 32222
" />
<path d="M35828 32090
L35922 32353
L36015 32090
" />
<path d="M36165 32315
L36184 32334
L36165 32353
L36147 32334
L36165 32315
L36165 32353
" />
<path d="M36634 32240
L36821 32240
" />
<path d="M36597 32353
L36728 31959
L36859 32353
" />
<path d="M37403 32503
L37384 32484
L37346 32428
L37328 32390
L37309 32334
L37290 32240
L37290 32165
L37309 32072
L37328 32015
L37346 31978
L37384 31922
L37403 31903
" />
<path d="M37534 31997
L37553 31978
L37590 31959
L37684 31959
L37721 31978
L37740 31997
L37759 32034
L37759 32072
L37740 32128
L37515 32353
L37759 32353
" />
<path d="M38003 31959
L38040 31959
L38078 31978
L38096 31997
L38115 32034
L38134 32109
L38134 32203
L38115 32278
L38096 32315
L38078 32334
L38040 32353
L38003 32353
L37965 32334
L37946 32315
L37928 32278
L37909 32203
L37909 32109
L37928 32034
L37946 31997
L37965 31978
L38003 31959
" />
<path d="M38509 32353
L38284 32353
" />
<path d="M38396 32353
L38396 31959
L38359 32015
L38321 32053
L38284 32072
" />
<path d="M38640 31959
L38902 31959
L38734 32353
" />
<path d="M39052 32203
L39352 32203
" />
<path d="M39746 32353
L39521 32353
" />
<path d="M39634 32353
L39634 31959
L39596 32015
L39559 32053
L39521 32072
" />
<path d="M39934 32353
L40009 32353
L40046 32334
L40065 32315
L40102 32259
L40121 32184
L40121 32034
L40102 31997
L40084 31978
L40046 31959
L39971 31959
L39934 31978
L39915 31997
L39896 32034
L39896 32128
L39915 32165
L39934 32184
L39971 32203
L40046 32203
L40084 32184
L40102 32165
L40121 32128
" />
<path d="M40252 32503
L40271 32484
L40309 32428
L40327 32390
L40346 32334
L40365 32240
L40365 32165
L40346 32072
L40327 32015
L40309 31978
L40271 31922
L40252 31903
" />
<path d="M34534 32740
L34534 33059
L34516 33096
L34497 33115
L34459 33134
L34403 33134
L34366 33115
" />
<path d="M34534 32984
L34497 33002
L34422 33002
L34384 32984
L34366 32965
L34347 32927
L34347 32815
L34366 32777
L34384 32759
L34422 32740
L34497 32740
L34534 32759
" />
<path d="M34722 33002
L34722 32740
" />
<path d="M34722 32609
L34703 32627
L34722 32646
L34741 32627
L34722 32609
L34722 32646
" />
<path d="M34853 32740
L35003 32740
" />
<path d="M34909 32609
L34909 32946
L34928 32984
L34965 33002
L35003 33002
" />
<path d="M35134 33002
L35134 32609
" />
<path d="M35303 33002
L35303 32796
L35284 32759
L35247 32740
L35190 32740
L35153 32759
L35134 32777
" />
<path d="M35659 32740
L35659 33002
" />
<path d="M35490 32740
L35490 32946
L35509 32984
L35547 33002
L35603 33002
L35640 32984
L35659 32965
" />
<path d="M35847 33002
L35847 32609
" />
<path d="M35847 32759
L35884 32740
L35959 32740
L35997 32759
L36015 32777
L36034 32815
L36034 32927
L36015 32965
L35997 32984
L35959 33002
L35884 33002
L35847 32984
" />
<path d="M36203 32965
L36222 32984
L36203 33002
L36184 32984
L36203 32965
L36203 33002
" />
<path d="M36559 32984
L36522 33002
L36447 33002
L36409 32984
L36390 32965
L36372 32927
L36372 32815
L36390 32777
L36409 32759
L36447 32740
L36522 32740
L36559 32759
" />
<path d="M36784 33002
L36747 32984
L36728 32965
L36709 32927
L36709 32815
L36728 32777
L36747 32759
L36784 32740
L36840 32740
L36878 32759
L36896 32777
L36915 32815
L36915 32927
L36896 32965
L36878 32984
L36840 33002
L36784 33002
" />
<path d="M37084 33002
L37084 32740
" />
<path d="M37084 32777
L37103 32759
L37140 32740
L37196 32740
L37234 32759
L37253 32796
L37253 33002
" />
<path d="M37253 32796
L37271 32759
L37309 32740
L37365 32740
L37403 32759
L37421 32796
L37421 33002
" />
<path d="M37890 32590
L37553 33096
" />
<path d="M38021 32609
L38021 32927
L38040 32965
L38059 32984
L38096 33002
L38171 33002
L38209 32984
L38228 32965
L38246 32927
L38246 32609
" />
<path d="M38434 32796
L38565 32796
" />
<path d="M38621 33002
L38434 33002
L38434 32609
L38621 32609
" />
<path d="M38790 33002
L38790 32609
L38940 32609
L38977 32627
L38996 32646
L39015 32684
L39015 32740
L38996 32777
L38977 32796
L38940 32815
L38790 32815
" />
<path d="M39184 33002
L39184 32740
" />
<path d="M39184 32815
L39202 32777
L39221 32759
L39259 32740
L39296 32740
" />
<path d="M39484 33002
L39446 32984
L39427 32965
L39409 32927
L39409 32815
L39427 32777
L39446 32759
L39484 32740
L39540 32740
L39577 32759
L39596 32777
L39615 32815
L39615 32927
L39596 32965
L39577 32984
L39540 33002
L39484 33002
" />
<path d="M40065 32590
L39727 33096
" />
<path d="M40177 32890
L40365 32890
" />
<path d="M40140 33002
L40271 32609
L40402 33002
" />
<path d="M40534 33002
L40534 32609
L40684 32609
L40721 32627
L40740 32646
L40758 32684
L40758 32740
L40740 32777
L40721 32796
L40684 32815
L40534 32815
" />
<path d="M41152 32965
L41133 32984
L41077 33002
L41040 33002
L40983 32984
L40946 32946
L40927 32909
L40908 32834
L40908 32777
L40927 32702
L40946 32665
L40983 32627
L41040 32609
L41077 32609
L41133 32627
L41152 32646
" />
</g>
<g style="fill:#000000; fill-opacity:0.0; 
stroke:#000000; stroke-width:118.11; stroke-opacity:1; 
stroke-linecap:round; stroke-linejoin:round;">
<path d="M33025 31348
L33306 31348
" />
<path d="M32969 31517
L33166 30926
L33363 31517
" />
<path d="M33475 30926
L33812 30926
" />
<path d="M33644 31517
L33644 30926
" />
<path d="M33981 31348
L34262 31348
" />
<path d="M33925 31517
L34122 30926
L34319 31517
" />
<path d="M34853 31517
L34656 31235
" />
<path d="M34516 31517
L34516 30926
L34741 30926
L34797 30954
L34825 30982
L34853 31039
L34853 31123
L34825 31179
L34797 31207
L34741 31235
L34516 31235
" />
<path d="M35106 31517
L35106 30926
" />
<path d="M35837 31517
L35837 30926
L36062 30926
L36118 30954
L36147 30982
L36175 31039
L36175 31123
L36147 31179
L36118 31207
L36062 31235
L35837 31235
" />
<path d="M36428 30926
L36428 31404
L36456 31460
L36484 31489
L36540 31517
L36653 31517
L36709 31489
L36737 31460
L36765 31404
L36765 30926
" />
<path d="M37046 31517
L37046 30926
L37384 31517
L37384 30926
" />
<path d="M37665 31517
L37665 30926
" />
<path d="M38003 31517
L37750 31179
" />
<path d="M38003 30926
L37665 31264
" />
<path d="M39043 31460
L39015 31489
L38931 31517
L38874 31517
L38790 31489
L38734 31432
L38706 31376
L38678 31264
L38678 31179
L38706 31067
L38734 31010
L38790 30954
L38874 30926
L38931 30926
L39015 30954
L39043 30982
" />
<path d="M39409 30926
L39521 30926
L39577 30954
L39634 31010
L39662 31123
L39662 31320
L39634 31432
L39577 31489
L39521 31517
L39409 31517
L39352 31489
L39296 31432
L39268 31320
L39268 31123
L39296 31010
L39352 30954
L39409 30926
" />
<path d="M39915 31517
L39915 30926
L40252 31517
L40252 30926
" />
<path d="M40505 31489
L40590 31517
L40730 31517
L40787 31489
L40815 31460
L40843 31404
L40843 31348
L40815 31292
L40787 31264
L40730 31235
L40618 31207
L40562 31179
L40534 31151
L40505 31095
L40505 31039
L40534 30982
L40562 30954
L40618 30926
L40758 30926
L40843 30954
" />
<path d="M41208 30926
L41321 30926
L41377 30954
L41433 31010
L41462 31123
L41462 31320
L41433 31432
L41377 31489
L41321 31517
L41208 31517
L41152 31489
L41096 31432
L41068 31320
L41068 31123
L41096 31010
L41152 30954
L41208 30926
" />
<path d="M41996 31517
L41715 31517
L41715 30926
" />
<path d="M42193 31207
L42390 31207
" />
<path d="M42474 31517
L42193 31517
L42193 30926
L42474 30926
" />
</g>
<g style="fill:#000000; fill-opacity:0.0; 
stroke:#000000; stroke-width:59.0551; stroke-opacity:1; 
stroke-linecap:round; stroke-linejoin:round;">
<path d="M18903 43230
L18959 43248
L19053 43248
L19090 43230
L19109 43211
L19128 43173
L19128 43136
L19109 43098
L19090 43080
L19053 43061
L18978 43042
L18940 43023
L18922 43005
L18903 42967
L18903 42930
L18922 42892
L18940 42874
L18978 42855
L19071 42855
L19128 42874
" />
<path d="M19296 43248
L19296 42855
L19446 42855
L19484 42874
L19503 42892
L19521 42930
L19521 42986
L19503 43023
L19484 43042
L19446 43061
L19296 43061
" />
<path d="M19690 43248
L19690 42855
" />
<path d="M19915 43248
L19746 43023
" />
<path d="M19915 42855
L19690 43080
" />
<path d="M20309 43248
L20178 43061
" />
<path d="M20084 43248
L20084 42855
L20234 42855
L20271 42874
L20290 42892
L20309 42930
L20309 42986
L20290 43023
L20271 43042
L20234 43061
L20084 43061
" />
<path d="M17822 39428
L17822 39034
" />
<path d="M17822 39221
L18047 39221
" />
<path d="M18047 39428
L18047 39034
" />
<path d="M18384 39409
L18347 39428
L18272 39428
L18234 39409
L18215 39371
L18215 39221
L18234 39184
L18272 39165
L18347 39165
L18384 39184
L18403 39221
L18403 39259
L18215 39296
" />
<path d="M18740 39428
L18740 39221
L18721 39184
L18684 39165
L18609 39165
L18571 39184
" />
<path d="M18740 39409
L18703 39428
L18609 39428
L18571 39409
L18553 39371
L18553 39334
L18571 39296
L18609 39278
L18703 39278
L18740 39259
" />
<path d="M19096 39428
L19096 39034
" />
<path d="M19096 39409
L19059 39428
L18984 39428
L18946 39409
L18928 39390
L18909 39353
L18909 39240
L18928 39203
L18946 39184
L18984 39165
L19059 39165
L19096 39184
" />
<path d="M19284 39165
L19284 39559
" />
<path d="M19284 39184
L19321 39165
L19396 39165
L19434 39184
L19453 39203
L19471 39240
L19471 39353
L19453 39390
L19434 39409
L19396 39428
L19321 39428
L19284 39409
" />
<path d="M19640 39428
L19640 39034
" />
<path d="M19809 39428
L19809 39221
L19790 39184
L19753 39165
L19696 39165
L19659 39184
L19640 39203
" />
<path d="M20053 39428
L20015 39409
L19996 39390
L19978 39353
L19978 39240
L19996 39203
L20015 39184
L20053 39165
L20109 39165
L20146 39184
L20165 39203
L20184 39240
L20184 39353
L20165 39390
L20146 39409
L20109 39428
L20053 39428
" />
<path d="M20353 39165
L20353 39428
" />
<path d="M20353 39203
L20371 39184
L20409 39165
L20465 39165
L20503 39184
L20521 39221
L20521 39428
" />
<path d="M20859 39409
L20821 39428
L20746 39428
L20709 39409
L20690 39371
L20690 39221
L20709 39184
L20746 39165
L20821 39165
L20859 39184
L20877 39221
L20877 39259
L20690 39296
" />
<path d="M21027 39409
L21065 39428
L21140 39428
L21177 39409
L21196 39371
L21196 39353
L21177 39315
L21140 39296
L21084 39296
L21046 39278
L21027 39240
L21027 39221
L21046 39184
L21084 39165
L21140 39165
L21177 39184
" />
<path d="M25653 31553
L25615 31534
L25559 31534
L25503 31553
L25465 31590
L25446 31628
L25428 31703
L25428 31759
L25446 31834
L25465 31871
L25503 31909
L25559 31928
L25596 31928
L25653 31909
L25671 31890
L25671 31759
L25596 31759
" />
<path d="M26009 31928
L26009 31721
L25990 31684
L25953 31665
L25878 31665
L25840 31684
" />
<path d="M26009 31909
L25971 31928
L25878 31928
L25840 31909
L25821 31871
L25821 31834
L25840 31796
L25878 31778
L25971 31778
L26009 31759
" />
<path d="M26196 31928
L26196 31665
" />
<path d="M26196 31534
L26178 31553
L26196 31571
L26215 31553
L26196 31534
L26196 31571
" />
<path d="M26384 31665
L26384 31928
" />
<path d="M26384 31703
L26403 31684
L26440 31665
L26496 31665
L26534 31684
L26553 31721
L26553 31928
" />
<path d="M32965 33784
L33096 34178
L33228 33784
" />
<path d="M33584 34140
L33565 34159
L33509 34178
L33471 34178
L33415 34159
L33378 34121
L33359 34084
L33340 34009
L33340 33953
L33359 33878
L33378 33840
L33415 33803
L33471 33784
L33509 33784
L33565 33803
L33584 33821
" />
<path d="M33828 33784
L33903 33784
L33940 33803
L33978 33840
L33996 33915
L33996 34046
L33978 34121
L33940 34159
L33903 34178
L33828 34178
L33790 34159
L33753 34121
L33734 34046
L33734 33915
L33753 33840
L33790 33803
L33828 33784
" />
<path d="M41746 34178
L41559 34178
L41559 33784
" />
<path d="M42009 33971
L41878 33971
" />
<path d="M41878 34178
L41878 33784
L42065 33784
" />
<path d="M42290 33784
L42365 33784
L42403 33803
L42440 33840
L42459 33915
L42459 34046
L42440 34121
L42403 34159
L42365 34178
L42290 34178
L42253 34159
L42215 34121
L42196 34046
L42196 33915
L42215 33840
L42253 33803
L42290 33784
" />
</g>
<g style="fill:#000000; fill-opacity:0.0; 
stroke:#000000; stroke-width:150; stroke-opacity:1; 
stroke-linecap:round; stroke-linejoin:round;">
<path d="M45831 38894
L45831 38697
" />
<path d="M45831 38894
L45634 38894
" />
<path d="M45831 39091
L45831 38894
" />
<path d="M45831 38894
L45988 38894
" />
<path d="M45988 38894
L46028 38894
" />
<circle cx="46500" cy="38500" r="1240" /> 
<path d="M39500 40500
L38500 40500
" />
<path d="M38500 40500
L38500 43500
" />
<path d="M38500 43500
L39500 43500
" />
<path d="M39500 43500
L39500 40500
" />
</g>
<g style="fill:#000000; fill-opacity:0.0; 
stroke:#000000; stroke-width:120; stroke-opacity:1; 
stroke-linecap:round; stroke-linejoin:round;">
<path d="M43980 45921
L42000 45921
" />
<path d="M42000 45921
L42000 45106
" />
<path d="M42000 45078
L44000 45078
" />
<path d="M44000 45106
L44000 45921
" />
<path d="M38600 45100
L41400 45100
" />
<path d="M41400 45100
L41400 45900
" />
<path d="M41400 45900
L38600 45900
" />
<path d="M38600 45900
L38600 45100
" />
</g>
<g style="fill:#000000; fill-opacity:0.0; 
stroke:#000000; stroke-width:150; stroke-opacity:1; 
stroke-linecap:round; stroke-linejoin:round;">
<path d="M36000 44500
L37000 44500
" />
<path d="M37000 44500
L37000 41500
" />
<path d="M37000 41500
L36000 41500
" />
<path d="M36000 41500
L36000 44500
" />
</g>
<g style="fill:#000000; fill-opacity:0.0; 
stroke:#000000; stroke-width:120; stroke-opacity:1; 
stroke-linecap:round; stroke-linejoin:round;">
<path d="M35480 45921
L33500 45921
" />
<path d="M33500 45921
L33500 45106
" />
<path d="M33500 45078
L35500 45078
" />
<path d="M35500 45106
L35500 45921
" />
<path d="M30100 43900
L30100 41100
" />
<path d="M30100 41100
L30900 41100
" />
<path d="M30900 41100
L30900 43900
" />
<path d="M30900 43900
L30100 43900
" />
</g>
<g style="fill:#000000; fill-opacity:0.0; 
stroke:#000000; stroke-width:118.11; stroke-opacity:1; 
stroke-linecap:round; stroke-linejoin:round;">
<path d="M28893 40334
L28893 44665
" />
<path d="M26137 44665
L26137 40334
" />
<path d="M28893 40334
L26137 40334
" />
<path d="M28893 44665
L26137 44665
" />
<path d="M22606 44665
L22606 40334
" />
<path d="M25362 40334
L25362 44665
" />
<path d="M22606 44665
L25362 44665
" />
<path d="M22606 40334
L25362 40334
" />
</g>
<g style="fill:#000000; fill-opacity:0.0; 
stroke:#000000; stroke-width:150; stroke-opacity:1; 
stroke-linecap:round; stroke-linejoin:round;">
<path d="M48500 41427
L48500 41486
" />
<path d="M48500 41093
L48500 41014
" />
<path d="M48500 41427
L48205 41427
" />
<path d="M48500 41427
L48776 41427
" />
<path d="M48500 41427
L48776 41093
" />
<path d="M48776 41093
L48224 41093
" />
<path d="M48224 41093
L48500 41427
" />
</g>
<g style="fill:#000000; fill-opacity:0.0; 
stroke:#000000; stroke-width:59.0551; stroke-opacity:1; 
stroke-linecap:round; stroke-linejoin:round;">
<path d="M48106.3 34106.3 A556.777 556.777 0.0 0 0 48106.3 34893.7 " />
<path d="M48893.7 34893.7 A556.777 556.777 0.0 0 0 48893.7 34106.3 " />
</g>
<g style="fill:#000000; fill-opacity:0.0; 
stroke:#000000; stroke-width:100; stroke-opacity:1; 
stroke-linecap:round; stroke-linejoin:round;">
<path d="M48510 33191
L48510 33571
" />
<path d="M48700 33391
L48320 33391
" />
</g>
<g style="fill:#000000; fill-opacity:0.0; 
stroke:#000000; stroke-width:120; stroke-opacity:1; 
stroke-linecap:round; stroke-linejoin:round;">
<path d="M49750 33500
L50750 33500
" />
<path d="M50750 33500
L50750 35500
" />
<path d="M50750 35500
L49750 35500
" />
<path d="M49750 35500
L49750 33500
" />
<path d="M18500 42000
L18500 41000
" />
<path d="M18500 41000
L20500 41000
" />
<path d="M20500 41000
L20500 42000
" />
<path d="M20500 42000
L18500 42000
" />
</g>
<g style="fill:#000000; fill-opacity:0.0; 
stroke:#000000; stroke-width:118.11; stroke-opacity:1; 
stroke-linecap:round; stroke-linejoin:round;">
<path d="M21846 37295
L21846 36704
" />
<path d="M20173 38279
L20862 38279
" />
<path d="M19090 38279
L19582 38279
" />
<path d="M20173 35720
L20862 35720
" />
<path d="M19090 35720
L19582 35720
" />
<path d="M17909 38279
L17122 38279
" />
<path d="M17122 38279
L17122 35720
" />
<path d="M17122 35720
L17909 35720
" />
</g>
<g style="fill:#000000; fill-opacity:0.0; 
stroke:#000000; stroke-width:150; stroke-opacity:1; 
stroke-linecap:round; stroke-linejoin:round;">
<path d="M50730 41567
L51006 41567
" />
<path d="M51006 41567
L51006 41665
" />
<path d="M51006 42354
L51006 42433
" />
<path d="M51006 42433
L50730 42433
" />
<path d="M48050 37250
L48050 37650
" />
<path d="M48050 37250
L48050 36850
" />
<path d="M48950 37250
L48950 37650
" />
<path d="M48950 37250
L48950 36850
" />
</g>
<g style="fill:#000000; fill-opacity:0.0; 
stroke:#000000; stroke-width:59.0551; stroke-opacity:1; 
stroke-linecap:round; stroke-linejoin:round;">
<path d="M46500 34250
L46500 34750
" />
<path d="M46500 31750
L46500 32250
" />
<path d="M47000 34250
L47000 32250
" />
<path d="M47000 32250
L46000 32250
" />
<path d="M46000 32250
L46000 34250
" />
<path d="M47000 34250
L46000 34250
" />
<path d="M45000 43500
L45000 44000
" />
<path d="M45000 41000
L45000 41500
" />
<path d="M45500 43500
L45500 41500
" />
<path d="M45500 41500
L44500 41500
" />
<path d="M44500 41500
L44500 43500
" />
<path d="M45500 43500
L44500 43500
" />
</g>
<g style="fill:#000000; fill-opacity:0.0; 
stroke:#000000; stroke-width:118.11; stroke-opacity:1; 
stroke-linecap:round; stroke-linejoin:round;">
<path d="M49704 40452
L51870 40452
" />
<path d="M49704 36318
L51870 36318
" />
<path d="M51870 36318
L51870 40452
" />
<path d="M49704 40452
L49704 36318
" />
</g>
<g style="fill:#000000; fill-opacity:0.0; 
stroke:#000000; stroke-width:100; stroke-opacity:1; 
stroke-linecap:round; stroke-linejoin:round;">
<path d="M42500 40500
L42500 41000
" />
<path d="M42500 41000
L41500 41000
" />
<path d="M41500 41000
L41500 40500
" />
<path d="M43000 40500
L43000 44500
" />
<path d="M43000 44500
L41000 44500
" />
<path d="M41000 44500
L41000 40500
" />
<path d="M41000 40500
L43000 40500
" />
<path d="M34000 40500
L34000 41000
" />
<path d="M34000 41000
L33000 41000
" />
<path d="M33000 41000
L33000 40500
" />
<path d="M34500 40500
L34500 44500
" />
<path d="M34500 44500
L32500 44500
" />
<path d="M32500 44500
L32500 40500
" />
<path d="M32500 40500
L34500 40500
" />
</g>
<g style="fill:#000000; fill-opacity:0.0; 
stroke:#000000; stroke-width:118.11; stroke-opacity:1; 
stroke-linecap:round; stroke-linejoin:round;">
<path d="M40031 35456
L40031 34472
" />
<path d="M40031 34472
L43968 34472
" />
<path d="M43968 34472
L43968 35456
" />
<path d="M43968 37031
L43968 38409
" />
<path d="M43968 38409
L40031 38409
" />
<path d="M40031 38409
L40031 37031
" />
<path d="M31531 35456
L31531 34472
" />
<path d="M31531 34472
L35468 34472
" />
<path d="M35468 34472
L35468 35456
" />
<path d="M35468 37031
L35468 38409
" />
<path d="M35468 38409
L31531 38409
" />
<path d="M31531 38409
L31531 37031
" />
<path d="M23637 35456
L23637 38409
" />
<path d="M23637 32307
L23637 33881
" />
<path d="M28362 35456
L28362 38409
" />
<path d="M23637 32307
L28362 32307
" />
<path d="M28362 32307
L28362 33881
" />
<circle cx="26000" cy="34669.3" r="709.754" /> 
<path d="M26000 38409
L23637 38409
" />
<path d="M26000 38409
L28362 38409
" />
</g>
<g style="fill:#000000; fill-opacity:1.0; 
stroke:#000000; stroke-width:1; stroke-opacity:1; 
stroke-linecap:round; stroke-linejoin:round;">
<polyline style="fill-rule:evenodd;"
points="27362,46070
27308,46070
27308,46019
27308,45671
27308,45324
25787,45324
24266,45324
24266,45671
24266,46019
25787,46019
27308,46019
27308,46070
25788,46070
24214,46070
24214,45670
24214,45271
25788,45271
27362,45271
27362,45670
27362,46070
27362,46070
" /> 
<polyline style="fill-rule:evenodd;"
points="24771,45970
24769,45970
24765,45970
24759,45970
24751,45970
24741,45970
24729,45970
24716,45970
24702,45970
24698,45970
24625,45970
24612,45959
24586,45935
24563,45910
24543,45884
24525,45857
24510,45829
24498,45801
24488,45771
24481,45740
24477,45709
24475,45676
24475,45673
24476,45640
24480,45608
24487,45577
24496,45548
24508,45519
24522,45490
24540,45463
24553,45444
24557,45439
24563,45432
24570,45424
24578,45416
24586,45407
24595,45399
24602,45391
24609,45384
24615,45379
24617,45377
24624,45372
24696,45372
24769,45373
24758,45377
24748,45381
24736,45387
24724,45393
24712,45400
24701,45406
24697,45409
24678,45423
24659,45439
24640,45456
24623,45475
24607,45495
24594,45514
24592,45518
24587,45526
24581,45537
24576,45548
24571,45559
24567,45569
24565,45575
24557,45602
24552,45630
24549,45658
24549,45686
24552,45714
24557,45742
24565,45768
24575,45794
24588,45819
24588,45819
24602,45841
24619,45862
24637,45882
24657,45902
24678,45919
24701,45935
24701,45936
24710,45941
24719,45946
24730,45952
24740,45957
24750,45961
24758,45965
24762,45966
24766,45968
24770,45969
24771,45970
24771,45970
" /> 
<polyline style="fill-rule:evenodd;"
points="25292,45681
25291,45696
25291,45710
25290,45721
25289,45727
25283,45758
25275,45788
25265,45817
25252,45844
25237,45870
25219,45895
25199,45920
25176,45943
25153,45964
25145,45970
25072,45970
25057,45970
25044,45970
25032,45970
25021,45970
25012,45970
25005,45970
25001,45970
24998,45970
24998,45970
24999,45969
25003,45968
25006,45967
25010,45965
25017,45962
25025,45959
25033,45955
25042,45951
25049,45947
25055,45943
25059,45942
25079,45928
25097,45915
25114,45900
25132,45884
25133,45883
25147,45867
25160,45852
25171,45837
25181,45821
25189,45806
25199,45783
25207,45757
25213,45731
25217,45704
25219,45677
25218,45649
25215,45622
25210,45595
25203,45572
25199,45562
25194,45550
25188,45537
25182,45525
25176,45513
25170,45505
25153,45481
25133,45459
25112,45438
25089,45419
25064,45403
25039,45389
25019,45380
25013,45377
25008,45375
25004,45374
25003,45373
25004,45373
25008,45372
25014,45372
25022,45372
25032,45372
25043,45372
25056,45372
25070,45372
25074,45372
25145,45372
25155,45380
25162,45386
25171,45394
25180,45403
25189,45412
25198,45422
25206,45430
25212,45438
25231,45464
25248,45491
25262,45519
25273,45548
25282,45579
25288,45611
25288,45613
25290,45623
25291,45636
25291,45651
25292,45666
25292,45681
25292,45681
" /> 
<polyline style="fill-rule:evenodd;"
points="26607,45730
26607,45739
26607,45745
26607,45749
26606,45752
26605,45754
26605,45756
26605,45758
26605,45760
26604,45760
26603,45761
26603,45762
26603,45764
26603,45764
26602,45765
26602,45766
26602,45768
26601,45769
26601,45770
26601,45771
26601,45772
26600,45773
26599,45774
26599,45774
26599,45776
26599,45776
26598,45776
26598,45777
26598,45778
26597,45778
26596,45779
26596,45780
26596,45781
26595,45783
26593,45784
26594,45784
26594,45785
26593,45786
26591,45787
26591,45788
26590,45790
26587,45792
26584,45796
26581,45799
26578,45802
26576,45803
26575,45803
26574,45804
26573,45805
26572,45807
26572,45806
26571,45806
26570,45807
26568,45809
26567,45809
26566,45809
26566,45810
26565,45811
26564,45810
26563,45811
26563,45811
26562,45812
26562,45812
26560,45812
26560,45813
26559,45814
26559,45813
26557,45813
26557,45814
26557,45815
26556,45815
26554,45815
26554,45815
26552,45816
26552,45816
26550,45816
26550,45817
26549,45818
26548,45818
26546,45818
26546,45818
26545,45819
26544,45819
26542,45819
26541,45820
26539,45820
26539,45820
26537,45820
26535,45821
26533,45822
26531,45822
26529,45822
26529,45823
26528,45824
26526,45823
26523,45823
26521,45824
26521,45824
26520,45824
26518,45825
26515,45825
26510,45825
26504,45825
26496,45825
26485,45826
26482,45826
26473,45826
26465,45826
26458,45826
26454,45825
26451,45825
26451,45825
26448,45824
26445,45825
26441,45825
26439,45824
26436,45823
26434,45823
26430,45823
26429,45823
26426,45822
26424,45822
26421,45822
26420,45821
26418,45820
26417,45820
26414,45820
26413,45820
26411,45819
26410,45819
26407,45819
26406,45818
26404,45817
26402,45818
26400,45818
26400,45817
26398,45816
26397,45816
26394,45816
26394,45815
26393,45814
26391,45815
26389,45815
26388,45814
26387,45813
26386,45813
26384,45813
26383,45813
26381,45812
26380,45812
26379,45812
26378,45811
26377,45810
26376,45810
26374,45810
26373,45810
26371,45809
26371,45809
26369,45808
26369,45808
26367,45808
26367,45808
26365,45807
26365,45807
26363,45806
26362,45806
26362,45805
26361,45801
26361,45796
26360,45789
26360,45781
26360,45772
26360,45764
26360,45756
26360,45750
26360,45745
26361,45742
26361,45741
26362,45740
26363,45741
26363,45742
26364,45742
26365,45742
26365,45743
26366,45744
26367,45744
26368,45744
26368,45744
26369,45745
26370,45745
26371,45745
26371,45746
26372,45747
26373,45746
26374,45747
26374,45747
26375,45748
26376,45748
26378,45748
26378,45749
26379,45750
26380,45749
26381,45749
26381,45750
26382,45751
26382,45751
26384,45751
26385,45751
26386,45752
26387,45752
26388,45752
26388,45753
26389,45754
26390,45754
26391,45754
26392,45754
26393,45755
26394,45755
26395,45755
26395,45756
26396,45757
26397,45757
26399,45757
26400,45757
26401,45758
26402,45758
26404,45758
26404,45758
26405,45759
26406,45759
26408,45759
26408,45760
26409,45761
26410,45761
26412,45761
26412,45761
26413,45762
26414,45762
26417,45762
26417,45763
26419,45764
26420,45763
26422,45763
26422,45764
26423,45765
26425,45765
26428,45765
26429,45766
26431,45767
26432,45766
26435,45766
26436,45767
26438,45768
26439,45768
26443,45768
26444,45768
26445,45769
26447,45769
26450,45769
26454,45770
26460,45770
26469,45770
26472,45770
26479,45770
26484,45770
26488,45770
26490,45770
26490,45769
26492,45769
26494,45769
26497,45769
26498,45768
26500,45767
26501,45768
26503,45768
26503,45767
26504,45766
26505,45766
26507,45766
26508,45766
26508,45764
26509,45764
26511,45764
26515,45762
26517,45760
26519,45759
26518,45760
26518,45760
26518,45761
26520,45759
26521,45759
26523,45756
26524,45754
26524,45754
26524,45753
26525,45752
26527,45751
26527,45749
26526,45747
26527,45747
26528,45746
26528,45743
26528,45738
26528,45733
26528,45730
26527,45729
26527,45728
26527,45727
26527,45726
26526,45726
26525,45725
26525,45725
26525,45723
26524,45722
26522,45721
26523,45721
26524,45721
26523,45719
26523,45719
26520,45717
26519,45717
26518,45716
26517,45715
26516,45714
26515,45714
26513,45714
26513,45713
26512,45712
26512,45712
26511,45712
26510,45712
26509,45711
26508,45711
26506,45711
26506,45710
26505,45709
26504,45710
26502,45710
26502,45709
26501,45708
26500,45708
26498,45708
26498,45707
26497,45706
26496,45706
26493,45706
26493,45706
26491,45705
26489,45705
26487,45705
26486,45705
26485,45704
26484,45704
26481,45704
26480,45703
26478,45702
26476,45702
26474,45703
26473,45702
26472,45701
26471,45701
26468,45701
26467,45700
26465,45699
26464,45700
26461,45700
26460,45699
26458,45698
26457,45698
26454,45698
26453,45697
26450,45696
26449,45697
26447,45697
26446,45696
26443,45695
26442,45695
26440,45695
26440,45695
26438,45694
26436,45694
26434,45694
26434,45693
26433,45692
26432,45692
26429,45692
26429,45692
26427,45691
26426,45691
26424,45691
26424,45691
26423,45690
26422,45690
26420,45690
26419,45689
26419,45688
26418,45688
26417,45688
26417,45687
26416,45686
26415,45687
26413,45687
26412,45686
26411,45685
26411,45685
26409,45685
26409,45685
26407,45684
26407,45684
26405,45684
26405,45683
26404,45682
26404,45683
26403,45682
26402,45682
26402,45681
26401,45681
26400,45681
26400,45680
26399,45679
26398,45680
26397,45679
26396,45678
26395,45677
26394,45677
26393,45677
26392,45676
26392,45675
26391,45675
26389,45675
26388,45673
26387,45671
26386,45671
26384,45670
26381,45668
26378,45664
26377,45663
26373,45660
26371,45658
26371,45657
26371,45657
26372,45657
26370,45656
26368,45653
26368,45652
26367,45651
26367,45651
26366,45650
26366,45649
26366,45648
26365,45648
26365,45647
26365,45646
26365,45645
26364,45645
26363,45644
26363,45643
26363,45642
26363,45642
26362,45641
26362,45640
26362,45638
26361,45637
26360,45635
26360,45635
26360,45633
26360,45633
26359,45631
26359,45630
26359,45627
26359,45626
26358,45624
26358,45620
26358,45615
26358,45608
26358,45602
26358,45597
26358,45593
26359,45591
26359,45591
26359,45590
26359,45588
26359,45585
26360,45585
26360,45583
26360,45582
26360,45580
26361,45579
26362,45578
26362,45577
26362,45575
26363,45575
26363,45574
26363,45573
26363,45571
26364,45571
26365,45570
26365,45570
26365,45568
26365,45568
26366,45567
26366,45567
26366,45565
26367,45565
26368,45564
26368,45564
26368,45562
26369,45562
26371,45561
26371,45560
26371,45558
26372,45558
26374,45556
26374,45556
26374,45554
26377,45552
26380,45548
26383,45545
26386,45542
26388,45541
26389,45540
26390,45539
26392,45538
26393,45536
26393,45537
26393,45538
26394,45536
26396,45535
26397,45535
26398,45535
26398,45534
26399,45533
26400,45533
26402,45532
26402,45531
26403,45530
26404,45530
26406,45530
26406,45530
26408,45529
26408,45529
26409,45529
26410,45528
26410,45527
26411,45528
26412,45527
26412,45527
26413,45526
26415,45526
26416,45526
26417,45526
26418,45525
26419,45525
26421,45525
26421,45524
26422,45523
26423,45523
26425,45523
26426,45523
26428,45522
26428,45522
26430,45522
26432,45521
26434,45520
26435,45520
26437,45521
26439,45520
26441,45519
26443,45519
26446,45519
26447,45519
26450,45518
26455,45517
26462,45517
26471,45517
26481,45517
26491,45517
26496,45518
26503,45518
26510,45518
26515,45519
26517,45519
26521,45519
26524,45520
26524,45520
26527,45521
26530,45521
26533,45520
26534,45521
26536,45522
26539,45522
26542,45522
26544,45523
26546,45523
26548,45523
26551,45523
26552,45524
26554,45525
26556,45525
26559,45525
26559,45525
26561,45526
26563,45526
26566,45526
26567,45527
26569,45528
26570,45528
26573,45528
26574,45528
26575,45529
26576,45529
26578,45529
26579,45530
26582,45531
26583,45531
26584,45531
26584,45533
26585,45536
26585,45540
26585,45547
26585,45556
26585,45563
26585,45575
26585,45584
26585,45590
26585,45593
26584,45594
26583,45592
26583,45593
26582,45593
26581,45592
26579,45592
26578,45592
26577,45592
26577,45591
26576,45590
26576,45590
26574,45590
26574,45589
26572,45589
26572,45589
26570,45588
26569,45588
26568,45587
26567,45587
26566,45587
26566,45586
26565,45585
26564,45586
26562,45586
26562,45585
26561,45584
26560,45584
26557,45584
26557,45584
26555,45583
26554,45583
26552,45583
26552,45582
26551,45581
26550,45581
26547,45581
26547,45581
26545,45580
26544,45580
26542,45580
26541,45580
26539,45579
26538,45579
26536,45579
26535,45578
26533,45577
26532,45577
26529,45577
26528,45577
26526,45576
26525,45576
26521,45576
26520,45576
26519,45575
26517,45575
26514,45574
26510,45574
26504,45574
26495,45574
26490,45574
26482,45574
26476,45574
26471,45574
26468,45574
26468,45574
26465,45575
26464,45575
26461,45575
26460,45575
26458,45576
26457,45576
26455,45576
26454,45577
26453,45577
26452,45577
26450,45578
26450,45578
26448,45579
26448,45579
26447,45579
26446,45579
26446,45581
26445,45581
26444,45581
26441,45583
26441,45584
26441,45582
26440,45583
26439,45584
26437,45585
26437,45586
26437,45586
26439,45585
26440,45584
26441,45582
26441,45584
26439,45586
26436,45589
26435,45591
26435,45591
26435,45592
26434,45592
26433,45593
26433,45594
26433,45596
26433,45597
26432,45598
26431,45601
26431,45604
26432,45608
26432,45610
26433,45611
26433,45612
26433,45613
26433,45615
26434,45616
26436,45617
26436,45618
26436,45619
26438,45622
26440,45623
26440,45622
26440,45622
26440,45621
26441,45622
26443,45624
26444,45624
26445,45624
26445,45625
26446,45626
26446,45626
26448,45626
26448,45626
26449,45627
26449,45627
26451,45627
26451,45628
26453,45629
26454,45628
26455,45629
26456,45629
26458,45630
26459,45630
26460,45630
26461,45631
26462,45632
26464,45631
26466,45631
26466,45632
26467,45633
26469,45633
26472,45633
26473,45633
26475,45634
26476,45634
26479,45634
26480,45635
26482,45636
26483,45636
26486,45636
26487,45636
26489,45637
26491,45637
26494,45637
26495,45638
26496,45639
26498,45639
26501,45638
26503,45639
26505,45640
26507,45640
26510,45640
26510,45641
26512,45642
26513,45641
26516,45641
26517,45642
26519,45643
26520,45643
26523,45643
26524,45643
26526,45644
26527,45644
26529,45644
26529,45645
26530,45646
26532,45646
26534,45646
26535,45646
26537,45647
26537,45647
26539,45647
26540,45648
26541,45648
26542,45648
26544,45648
26545,45649
26545,45650
26546,45650
26548,45650
26548,45651
26550,45651
26550,45651
26552,45651
26552,45652
26553,45653
26554,45653
26556,45653
26556,45654
26557,45654
26557,45654
26559,45654
26559,45655
26560,45656
26561,45656
26563,45656
26563,45657
26564,45657
26564,45657
26565,45657
26568,45659
26570,45661
26572,45661
26573,45661
26573,45662
26574,45663
26574,45663
26576,45663
26576,45664
26578,45666
26578,45666
26580,45667
26583,45669
26586,45673
26588,45674
26591,45677
26594,45680
26595,45682
26595,45682
26595,45682
26596,45683
26598,45685
26598,45686
26598,45687
26599,45688
26599,45688
26599,45689
26599,45690
26600,45690
26601,45691
26601,45692
26601,45693
26601,45693
26602,45694
26602,45695
26602,45697
26603,45697
26604,45698
26603,45700
26603,45701
26604,45702
26605,45703
26605,45705
26605,45707
26605,45707
26606,45708
26606,45709
26607,45711
26607,45715
26607,45721
26607,45729
26607,45730
26607,45730
" /> 
<polyline style="fill-rule:evenodd;"
points="25894,45734
25894,45740
25894,45746
25894,45750
25893,45752
25893,45752
25893,45755
25893,45756
25893,45758
25892,45759
25891,45761
25892,45762
25892,45764
25891,45764
25890,45765
25890,45766
25890,45768
25889,45769
25888,45769
25889,45770
25888,45771
25888,45771
25887,45772
25887,45773
25887,45774
25886,45774
25886,45775
25886,45776
25886,45777
25885,45777
25884,45778
25884,45778
25883,45780
25882,45782
25880,45783
25881,45783
25881,45784
25879,45786
25876,45789
25875,45790
25871,45793
25868,45796
25866,45797
25866,45797
25865,45798
25864,45799
25863,45800
25862,45800
25861,45801
25860,45802
25859,45803
25858,45803
25857,45804
25857,45804
25856,45805
25855,45805
25854,45805
25854,45805
25853,45806
25852,45806
25851,45806
25851,45807
25850,45808
25850,45808
25848,45808
25848,45808
25847,45809
25846,45809
25844,45809
25844,45810
25843,45811
25843,45810
25841,45811
25840,45811
25839,45812
25838,45812
25836,45812
25836,45812
25834,45813
25833,45813
25831,45813
25831,45814
25830,45815
25828,45815
25826,45815
25825,45815
25824,45817
25822,45816
25819,45816
25818,45816
25817,45817
25815,45817
25814,45818
25814,45730
25814,45726
25813,45723
25812,45722
25812,45720
25812,45719
25812,45716
25811,45716
25810,45715
25810,45714
25810,45712
25809,45712
25809,45711
25809,45711
25809,45709
25807,45708
25806,45707
25807,45707
25808,45707
25808,45706
25805,45704
25803,45702
25801,45700
25801,45605
25800,45602
25800,45601
25799,45600
25799,45598
25799,45596
25799,45595
25798,45594
25798,45593
25797,45591
25796,45590
25795,45589
25795,45588
25794,45587
25792,45584
25792,45584
25790,45582
25788,45582
25788,45582
25788,45582
25786,45580
25785,45578
25784,45579
25783,45579
25782,45578
25780,45577
25780,45577
25779,45577
25778,45577
25775,45576
25774,45576
25771,45576
25771,45575
25769,45575
25764,45574
25757,45574
25747,45574
25742,45574
25715,45574
25715,45606
25715,45638
25744,45638
25753,45637
25761,45637
25768,45637
25773,45637
25775,45636
25775,45636
25777,45635
25778,45635
25780,45635
25781,45635
25782,45634
25783,45634
25784,45634
25784,45633
25785,45632
25785,45632
25786,45632
25789,45630
25790,45629
25791,45629
25791,45629
25790,45630
25791,45630
25794,45628
25795,45626
25794,45625
25794,45626
25793,45626
25794,45625
25796,45623
25796,45622
25796,45621
25797,45621
25798,45620
25798,45619
25798,45618
25798,45618
25799,45617
25799,45614
25799,45612
25800,45610
25801,45608
25801,45605
25801,45700
25800,45699
25799,45698
25799,45699
25799,45700
25798,45699
25796,45697
25795,45697
25794,45697
25794,45696
25793,45695
25793,45695
25791,45695
25791,45695
25790,45694
25789,45694
25787,45694
25787,45693
25786,45692
25785,45692
25782,45693
25781,45692
25779,45691
25774,45691
25768,45690
25759,45690
25748,45690
25740,45690
25715,45690
25715,45729
25714,45769
25747,45768
25756,45768
25764,45768
25771,45768
25776,45767
25779,45767
25779,45767
25781,45766
25783,45766
25785,45766
25786,45766
25788,45765
25788,45765
25790,45765
25790,45764
25791,45763
25792,45763
25794,45763
25794,45763
25795,45762
25795,45762
25797,45761
25799,45759
25800,45758
25801,45758
25800,45760
25801,45759
25804,45757
25804,45756
25806,45754
25806,45753
25805,45753
25805,45754
25806,45752
25808,45750
25809,45748
25809,45747
25810,45747
25811,45746
25811,45745
25811,45743
25811,45743
25812,45742
25812,45740
25812,45737
25812,45735
25813,45733
25814,45730
25814,45818
25813,45818
25809,45818
25803,45819
25800,45819
25795,45819
25787,45819
25778,45819
25767,45819
25754,45820
25740,45820
25726,45820
25714,45820
25632,45820
25632,45671
25633,45522
25705,45522
25719,45522
25733,45522
25745,45522
25757,45523
25767,45523
25775,45523
25781,45523
25785,45523
25785,45523
25790,45524
25796,45524
25798,45524
25802,45525
25805,45526
25805,45526
25808,45527
25810,45526
25812,45526
25813,45527
25815,45528
25817,45528
25819,45527
25820,45528
25821,45529
25823,45529
25825,45529
25825,45530
25826,45531
25827,45531
25830,45531
25830,45531
25832,45532
25832,45532
25834,45532
25835,45533
25836,45533
25837,45533
25838,45533
25838,45534
25839,45535
25839,45535
25841,45535
25842,45535
25843,45536
25844,45536
25845,45536
25845,45537
25846,45538
25847,45538
25848,45538
25849,45539
25850,45541
25850,45541
25852,45541
25853,45542
25855,45543
25854,45543
25855,45543
25857,45544
25860,45548
25862,45549
25866,45553
25868,45556
25870,45558
25870,45559
25870,45560
25871,45560
25873,45562
25873,45563
25873,45564
25874,45564
25875,45565
25874,45565
25875,45567
25875,45567
25876,45568
25876,45568
25876,45569
25877,45570
25878,45571
25877,45572
25877,45573
25878,45574
25879,45575
25879,45576
25879,45578
25880,45579
25880,45581
25880,45582
25880,45585
25880,45586
25881,45588
25881,45592
25881,45597
25881,45603
25881,45608
25881,45613
25880,45615
25880,45617
25880,45618
25880,45620
25879,45621
25878,45622
25878,45623
25878,45625
25878,45625
25877,45626
25877,45627
25877,45629
25876,45629
25876,45630
25876,45631
25876,45632
25875,45632
25874,45633
25874,45633
25874,45635
25873,45636
25871,45638
25870,45638
25869,45640
25867,45643
25863,45646
25863,45647
25860,45650
25858,45652
25857,45652
25857,45652
25857,45651
25856,45653
25854,45654
25854,45654
25853,45654
25852,45655
25851,45657
25849,45657
25848,45657
25848,45658
25847,45659
25847,45658
25845,45659
25845,45659
25843,45660
25842,45660
25841,45660
25840,45661
25840,45662
25841,45661
25842,45661
25842,45662
25843,45663
25845,45663
25846,45663
25847,45663
25848,45664
25849,45664
25851,45664
25851,45665
25852,45666
25852,45665
25854,45666
25854,45666
25855,45667
25855,45667
25857,45667
25857,45668
25857,45669
25858,45668
25859,45668
25859,45669
25860,45670
25861,45670
25863,45671
25864,45673
25866,45674
25866,45673
25866,45673
25867,45674
25868,45675
25870,45677
25872,45678
25873,45678
25873,45678
25873,45679
25874,45680
25876,45683
25877,45684
25880,45687
25881,45688
25881,45689
25882,45690
25883,45691
25884,45692
25884,45693
25885,45694
25885,45695
25886,45695
25886,45696
25886,45697
25886,45697
25887,45698
25887,45699
25887,45700
25888,45700
25889,45701
25889,45702
25889,45703
25889,45703
25890,45704
25890,45705
25890,45707
25891,45707
25892,45708
25892,45709
25892,45712
25892,45712
25893,45714
25893,45716
25892,45718
25893,45719
25894,45720
25894,45724
25894,45729
25894,45734
25894,45734
" /> 
<polyline style="fill-rule:evenodd;"
points="26643,45820
26642,45821
26641,45820
26642,45820
26643,45820
26643,45820
" /> 
<polyline style="fill-rule:evenodd;"
points="26211,45523
26211,45523
26210,45525
26210,45526
26210,45526
26208,45528
26207,45529
26207,45530
26207,45531
26205,45532
26205,45533
26203,45534
26203,45535
26203,45535
26204,45535
26203,45536
26201,45538
26200,45540
26199,45541
26197,45543
26196,45545
26196,45545
26197,45545
26195,45546
26195,45547
26193,45549
26193,45550
26193,45550
26193,45550
26192,45551
26190,45553
26190,45554
26190,45556
26189,45556
26187,45557
26187,45558
26187,45560
26185,45561
26183,45563
26183,45564
26182,45565
26181,45566
26180,45567
26180,45568
26180,45570
26179,45570
26177,45572
26177,45572
26177,45574
26175,45575
26173,45577
26173,45578
26172,45579
26171,45580
26170,45581
26170,45582
26170,45584
26169,45585
26167,45586
26167,45587
26167,45588
26165,45589
26163,45591
26163,45592
26162,45594
26161,45594
26160,45596
26160,45596
26159,45598
26157,45600
26156,45601
26157,45601
26157,45602
26156,45603
26155,45603
26153,45605
26153,45606
26153,45606
26153,45607
26152,45608
26150,45610
26150,45611
26149,45613
26147,45614
26146,45616
26147,45616
26147,45616
26146,45617
26145,45618
26143,45620
26143,45621
26143,45621
26143,45621
26142,45622
26140,45624
26140,45625
26139,45627
26137,45629
26136,45630
26137,45630
26137,45630
26136,45631
26135,45632
26133,45634
26133,45635
26133,45635
26133,45636
26132,45636
26131,45638
26130,45639
26129,45641
26127,45643
26126,45644
26127,45644
26127,45644
26126,45646
26125,45646
26123,45648
26123,45649
26123,45649
26123,45650
26122,45650
26121,45652
26120,45653
26119,45655
26117,45657
26116,45658
26117,45658
26117,45658
26116,45660
26115,45660
26113,45662
26113,45663
26113,45663
26113,45664
26112,45665
26111,45667
26110,45667
26109,45669
26108,45671
26106,45673
26107,45673
26107,45673
26106,45674
26104,45676
26104,45678
26103,45679
26102,45680
26100,45681
26100,45682
26100,45683
26098,45685
26096,45686
26096,45687
26096,45689
26095,45689
26093,45691
26093,45692
26093,45693
26092,45695
26091,45695
26091,45697
26091,45699
26090,45703
26090,45708
26090,45715
26090,45724
26090,45735
26090,45748
26090,45758
26090,45820
26051,45820
26051,45629
26051,45628
26049,45628
26049,45628
26049,45629
26050,45629
26051,45629
26051,45820
26050,45820
26010,45820
26010,45758
26010,45743
26010,45730
26010,45720
26010,45712
26010,45706
26010,45702
26009,45698
26009,45696
26009,45695
26008,45694
26008,45694
26006,45692
26007,45692
26008,45692
26007,45691
26004,45689
26004,45687
26003,45686
26002,45685
26000,45683
26001,45683
26001,45682
25999,45681
25999,45680
25997,45679
25997,45678
25997,45678
25998,45678
25997,45677
25994,45675
25994,45673
25993,45671
25992,45670
25991,45669
25991,45669
25991,45668
25989,45666
25989,45666
25987,45664
25987,45664
25987,45664
25988,45664
25987,45663
25985,45660
25984,45659
25983,45657
25982,45657
25981,45655
25981,45655
25981,45653
25979,45652
25977,45650
25977,45649
25976,45648
25975,45647
25974,45646
25974,45645
25974,45643
25973,45643
25971,45641
25971,45641
25971,45639
25969,45638
25967,45636
25967,45635
25966,45634
25965,45633
25964,45632
25964,45631
25964,45629
25963,45628
25961,45627
25961,45626
25961,45625
25959,45624
25957,45622
25957,45621
25956,45619
25955,45619
25954,45617
25954,45616
25954,45615
25953,45614
25951,45613
25951,45612
25951,45611
25949,45609
25947,45608
25947,45607
25946,45605
25945,45604
25944,45603
25944,45602
25944,45601
25943,45600
25941,45599
25941,45598
25941,45596
25939,45595
25937,45593
25937,45592
25936,45591
25936,45590
25934,45589
25934,45588
25933,45586
25931,45584
25930,45583
25931,45583
25931,45583
25930,45581
25929,45581
25927,45579
25927,45578
25927,45578
25927,45577
25926,45577
25924,45575
25924,45574
25923,45572
25921,45570
25920,45569
25921,45569
25921,45569
25920,45567
25919,45567
25917,45565
25917,45564
25917,45564
25917,45563
25916,45562
25914,45561
25914,45560
25913,45558
25911,45556
25910,45555
25911,45555
25911,45555
25910,45553
25909,45553
25907,45551
25907,45550
25907,45550
25907,45549
25906,45548
25905,45546
25904,45545
25903,45544
25901,45542
25900,45540
25901,45540
25901,45540
25900,45539
25898,45537
25897,45535
25896,45533
25895,45533
25894,45531
25894,45531
25894,45530
25893,45528
25892,45528
25890,45526
25890,45526
25891,45526
25892,45526
25890,45525
25888,45523
25888,45522
25889,45522
25893,45522
25899,45522
25907,45521
25916,45521
25927,45521
25932,45521
25944,45521
25954,45521
25962,45521
25968,45521
25972,45522
25975,45522
25977,45522
25978,45523
25979,45524
25979,45524
25981,45526
25980,45526
25980,45526
25980,45526
25981,45528
25982,45528
25984,45530
25984,45531
25984,45531
25984,45532
25985,45533
25987,45534
25987,45535
25987,45537
25988,45537
25990,45539
25990,45540
25990,45541
25991,45542
25992,45543
25992,45544
25993,45546
25994,45546
25995,45548
25995,45548
25996,45550
25997,45551
25998,45552
25998,45553
25998,45554
26000,45555
26001,45556
26001,45557
26001,45557
26003,45559
26003,45560
26005,45561
26005,45562
26004,45562
26004,45562
26005,45563
26006,45564
26008,45566
26008,45567
26008,45567
26008,45567
26009,45568
26011,45570
26011,45571
26011,45572
26012,45573
26014,45574
26014,45575
26014,45577
26015,45577
26017,45579
26017,45579
26017,45581
26018,45582
26019,45583
26019,45584
26020,45585
26021,45586
26022,45587
26022,45588
26022,45590
26024,45590
26025,45592
26025,45592
26026,45594
26027,45595
26029,45597
26029,45598
26030,45599
26031,45600
26032,45601
26032,45602
26033,45604
26034,45604
26035,45606
26035,45606
26036,45608
26037,45608
26038,45610
26038,45611
26038,45612
26039,45613
26041,45614
26041,45615
26041,45617
26042,45617
26044,45619
26044,45619
26044,45621
26045,45622
26047,45624
26047,45624
26048,45625
26050,45626
26052,45625
26053,45624
26054,45623
26055,45622
26056,45620
26056,45619
26057,45618
26058,45617
26059,45616
26059,45615
26059,45613
26060,45613
26062,45611
26062,45611
26062,45609
26064,45608
26065,45607
26065,45606
26065,45606
26067,45604
26067,45603
26069,45602
26069,45601
26068,45602
26068,45601
26069,45600
26070,45599
26072,45598
26072,45597
26071,45597
26071,45597
26072,45596
26073,45595
26075,45593
26075,45592
26075,45592
26075,45592
26076,45591
26078,45589
26078,45588
26078,45587
26079,45586
26081,45585
26081,45584
26081,45582
26082,45582
26083,45580
26083,45579
26084,45578
26085,45577
26086,45576
26086,45575
26087,45574
26088,45573
26089,45571
26089,45571
26089,45570
26091,45568
26091,45568
26093,45566
26093,45566
26093,45566
26092,45566
26093,45564
26094,45564
26096,45562
26096,45562
26095,45562
26095,45562
26096,45560
26097,45560
26099,45558
26099,45557
26099,45557
26099,45556
26100,45555
26102,45553
26102,45553
26102,45551
26103,45551
26105,45549
26105,45548
26105,45547
26106,45546
26108,45545
26108,45544
26108,45542
26109,45542
26110,45540
26110,45540
26111,45538
26112,45537
26114,45536
26113,45535
26113,45535
26115,45533
26115,45532
26117,45531
26117,45530
26117,45530
26116,45530
26118,45529
26118,45528
26120,45527
26120,45526
26120,45526
26119,45526
26120,45525
26121,45524
26122,45523
26123,45523
26124,45522
26127,45522
26130,45522
26135,45521
26142,45521
26151,45521
26162,45521
26168,45521
26180,45521
26190,45521
26198,45521
26203,45522
26207,45522
26210,45522
26211,45522
26211,45523
26211,45523
" /> 
<polyline style="fill-rule:evenodd;"
points="26975,45818
26974,45818
26973,45819
26968,45819
26962,45819
26952,45820
26941,45820
26932,45820
26920,45820
26910,45819
26902,45819
26896,45819
26893,45819
26892,45818
26892,45817
26891,45816
26890,45814
26891,45814
26890,45813
26890,45813
26889,45812
26889,45810
26889,45809
26888,45808
26888,45807
26888,45806
26888,45804
26887,45804
26886,45803
26886,45803
26886,45801
26886,45800
26885,45799
26885,45798
26885,45797
26884,45797
26884,45796
26884,45795
26884,45793
26883,45793
26882,45792
26882,45791
26882,45789
26881,45789
26881,45787
26881,45787
26880,45786
26880,45786
26879,45785
26879,45783
26879,45782
26879,45781
26878,45780
26878,45779
26878,45777
26877,45777
26876,45776
26876,45776
26876,45774
26876,45773
26875,45772
26875,45771
26875,45770
26874,45770
26874,45769
26874,45768
26874,45767
26873,45767
26871,45767
26868,45766
26864,45766
26858,45766
26853,45766
26853,45710
26852,45709
26852,45709
26851,45708
26851,45707
26851,45705
26850,45705
26849,45703
26850,45702
26850,45701
26849,45700
26848,45699
26848,45699
26848,45698
26847,45697
26846,45696
26846,45695
26846,45693
26846,45693
26845,45692
26845,45691
26845,45689
26844,45689
26843,45688
26844,45688
26843,45686
26843,45685
26842,45684
26842,45683
26842,45682
26842,45682
26841,45681
26841,45680
26841,45678
26840,45678
26839,45677
26840,45675
26840,45674
26839,45673
26838,45672
26838,45672
26838,45670
26837,45670
26836,45668
26837,45668
26836,45666
26836,45666
26835,45665
26835,45664
26835,45662
26835,45662
26834,45661
26834,45660
26834,45658
26833,45658
26832,45657
26832,45656
26832,45655
26832,45654
26831,45652
26831,45652
26831,45651
26830,45651
26829,45650
26829,45648
26829,45647
26829,45646
26828,45645
26828,45644
26828,45642
26827,45642
26826,45641
26827,45641
26826,45639
26826,45638
26825,45637
26825,45636
26825,45635
26825,45635
26824,45634
26824,45633
26824,45631
26823,45631
26822,45630
26822,45629
26822,45627
26822,45627
26821,45625
26821,45625
26821,45624
26820,45624
26819,45622
26819,45621
26819,45620
26819,45619
26818,45618
26818,45617
26818,45615
26818,45615
26816,45614
26817,45614
26816,45612
26816,45611
26815,45610
26815,45609
26815,45608
26815,45608
26813,45607
26814,45606
26814,45604
26813,45604
26812,45603
26813,45602
26813,45600
26812,45599
26811,45599
26811,45598
26810,45597
26810,45593
26810,45593
26808,45593
26808,45593
26808,45594
26809,45594
26810,45593
26810,45597
26810,45597
26807,45597
26807,45597
26807,45598
26807,45600
26806,45600
26805,45602
26805,45602
26805,45604
26805,45604
26804,45605
26804,45606
26804,45608
26803,45608
26802,45609
26802,45609
26802,45611
26802,45611
26801,45613
26801,45614
26801,45615
26800,45615
26799,45616
26799,45617
26800,45619
26799,45619
26798,45620
26798,45621
26798,45623
26798,45624
26797,45624
26797,45625
26797,45627
26796,45627
26795,45629
26795,45629
26795,45631
26795,45631
26794,45632
26794,45633
26794,45635
26793,45635
26793,45636
26793,45637
26793,45639
26792,45639
26791,45640
26791,45640
26791,45642
26790,45643
26790,45644
26790,45645
26790,45646
26789,45646
26788,45647
26788,45648
26788,45650
26787,45651
26787,45651
26787,45652
26787,45654
26786,45654
26785,45656
26786,45656
26785,45658
26785,45658
26784,45659
26784,45660
26784,45662
26783,45662
26783,45663
26783,45664
26783,45666
26782,45666
26781,45667
26781,45668
26781,45669
26780,45670
26780,45671
26780,45672
26780,45673
26779,45673
26778,45674
26778,45675
26778,45677
26778,45678
26777,45678
26777,45679
26777,45681
26776,45681
26775,45683
26776,45683
26775,45685
26775,45685
26774,45686
26774,45687
26774,45689
26773,45689
26773,45690
26773,45691
26773,45693
26772,45693
26771,45694
26771,45694
26771,45696
26771,45697
26770,45698
26770,45699
26770,45700
26769,45700
26768,45701
26768,45702
26768,45704
26768,45705
26767,45706
26767,45707
26767,45708
26766,45709
26765,45710
26765,45710
26766,45710
26770,45710
26776,45711
26784,45711
26793,45711
26804,45711
26809,45711
26820,45711
26830,45711
26838,45711
26845,45710
26850,45710
26853,45710
26853,45710
26853,45766
26851,45766
26841,45766
26829,45766
26814,45766
26809,45766
26793,45766
26780,45766
26769,45766
26761,45767
26754,45767
26750,45767
26747,45767
26745,45768
26745,45768
26744,45770
26744,45770
26743,45771
26743,45772
26743,45774
26742,45774
26741,45775
26741,45776
26741,45777
26741,45778
26740,45779
26740,45780
26740,45781
26739,45781
26739,45782
26739,45783
26739,45785
26738,45786
26737,45786
26737,45787
26737,45789
26736,45789
26736,45791
26736,45791
26736,45793
26735,45793
26734,45794
26734,45795
26734,45797
26733,45797
26733,45798
26733,45798
26733,45800
26732,45800
26731,45802
26731,45803
26731,45804
26731,45804
26730,45805
26730,45806
26730,45808
26729,45808
26728,45809
26729,45810
26728,45811
26728,45812
26727,45814
26727,45814
26727,45815
26726,45815
26725,45816
26726,45818
26726,45818
26725,45819
26723,45819
26719,45819
26714,45819
26707,45820
26698,45820
26686,45820
26685,45820
26674,45820
26664,45819
26656,45819
26649,45819
26645,45819
26643,45818
26643,45818
26644,45817
26644,45816
26645,45814
26645,45814
26645,45813
26645,45813
26646,45812
26646,45811
26646,45809
26647,45809
26648,45807
26648,45807
26648,45806
26648,45805
26649,45805
26649,45804
26649,45802
26650,45802
26651,45800
26650,45800
26651,45798
26651,45798
26652,45797
26652,45796
26652,45794
26652,45794
26653,45793
26653,45793
26653,45791
26654,45791
26655,45790
26654,45789
26655,45787
26655,45787
26656,45786
26656,45786
26656,45784
26657,45784
26658,45783
26658,45782
26658,45780
26658,45780
26659,45779
26659,45778
26659,45777
26660,45777
26661,45776
26661,45775
26661,45773
26661,45773
26662,45772
26662,45771
26662,45770
26663,45770
26664,45769
26663,45768
26663,45766
26664,45766
26665,45765
26665,45764
26665,45763
26665,45762
26666,45760
26666,45760
26666,45759
26667,45759
26668,45758
26668,45757
26668,45755
26668,45755
26669,45753
26669,45753
26669,45752
26670,45751
26671,45751
26670,45750
26671,45748
26671,45748
26672,45746
26672,45746
26672,45744
26672,45744
26673,45743
26673,45742
26673,45740
26674,45740
26675,45739
26675,45739
26675,45737
26675,45737
26676,45736
26676,45735
26676,45733
26677,45733
26678,45732
26677,45732
26678,45730
26678,45730
26679,45729
26679,45728
26679,45726
26680,45726
26681,45725
26680,45724
26680,45723
26681,45723
26682,45722
26682,45721
26682,45719
26683,45719
26683,45718
26683,45717
26683,45716
26684,45715
26685,45714
26684,45713
26685,45712
26685,45712
26686,45711
26686,45710
26686,45708
26687,45708
26688,45706
26687,45706
26687,45705
26688,45705
26689,45703
26689,45702
26689,45701
26689,45700
26690,45699
26690,45699
26690,45698
26691,45697
26692,45696
26691,45695
26692,45693
26692,45693
26693,45692
26693,45692
26693,45690
26694,45690
26695,45689
26694,45688
26694,45686
26695,45686
26696,45685
26696,45685
26696,45683
26697,45683
26698,45682
26698,45681
26698,45679
26698,45679
26699,45678
26699,45678
26699,45676
26700,45676
26701,45675
26700,45674
26700,45672
26701,45672
26702,45671
26702,45671
26702,45669
26702,45668
26703,45667
26703,45666
26703,45665
26704,45665
26705,45664
26705,45663
26705,45662
26705,45661
26706,45659
26706,45659
26706,45658
26707,45658
26708,45657
26707,45656
26708,45655
26708,45654
26709,45652
26709,45652
26709,45651
26709,45651
26710,45649
26710,45648
26710,45647
26711,45646
26712,45645
26712,45645
26712,45644
26712,45643
26713,45642
26713,45641
26713,45639
26714,45639
26715,45638
26714,45638
26715,45636
26715,45636
26716,45635
26716,45634
26716,45632
26717,45632
26717,45631
26717,45631
26717,45629
26718,45629
26719,45628
26719,45627
26719,45625
26720,45625
26720,45624
26720,45624
26720,45622
26721,45621
26722,45620
26721,45619
26722,45618
26722,45618
26723,45617
26723,45617
26723,45615
26724,45614
26724,45613
26724,45612
26725,45611
26725,45611
26726,45610
26726,45609
26726,45608
26726,45607
26727,45605
26727,45605
26727,45604
26728,45604
26729,45603
26728,45602
26729,45600
26729,45599
26730,45599
26730,45598
26730,45597
26731,45597
26731,45595
26731,45594
26731,45593
26732,45592
26733,45591
26733,45591
26733,45590
26734,45589
26735,45588
26734,45587
26734,45585
26735,45585
26736,45584
26736,45584
26736,45582
26736,45582
26738,45581
26737,45580
26737,45578
26738,45578
26739,45577
26739,45577
26739,45575
26739,45575
26740,45574
26740,45573
26740,45571
26741,45571
26742,45570
26741,45570
26742,45568
26742,45567
26743,45566
26743,45565
26743,45564
26744,45564
26745,45563
26744,45562
26745,45561
26745,45560
26746,45559
26746,45558
26746,45557
26746,45557
26747,45556
26747,45555
26747,45553
26748,45552
26749,45552
26749,45551
26749,45550
26749,45550
26750,45549
26750,45547
26750,45546
26751,45545
26752,45544
26751,45544
26751,45543
26752,45543
26753,45541
26753,45540
26753,45539
26753,45538
26754,45537
26754,45537
26754,45536
26755,45535
26756,45534
26756,45533
26756,45531
26756,45531
26757,45530
26757,45530
26757,45528
26758,45528
26759,45527
26759,45526
26759,45524
26759,45524
26760,45523
26760,45523
26761,45522
26765,45522
26772,45522
26781,45521
26793,45521
26808,45521
26809,45521
26824,45521
26836,45521
26846,45522
26853,45522
26857,45522
26858,45523
26858,45523
26858,45524
26859,45524
26860,45525
26860,45526
26860,45528
26860,45528
26861,45529
26861,45530
26861,45531
26862,45531
26863,45532
26862,45533
26862,45535
26863,45535
26864,45536
26864,45537
26864,45539
26864,45539
26865,45541
26865,45541
26865,45542
26866,45543
26867,45543
26867,45544
26867,45546
26867,45546
26868,45548
26868,45548
26868,45550
26869,45550
26870,45550
26869,45551
26870,45553
26870,45553
26871,45555
26871,45555
26871,45557
26871,45557
26872,45558
26872,45559
26872,45561
26873,45561
26874,45562
26874,45562
26874,45564
26874,45564
26875,45565
26875,45566
26875,45568
26876,45568
26877,45569
26876,45570
26877,45571
26877,45571
26878,45572
26878,45573
26878,45575
26879,45575
26879,45576
26879,45577
26879,45578
26880,45578
26881,45579
26881,45580
26881,45582
26882,45582
26882,45583
26882,45584
26882,45585
26883,45586
26884,45588
26883,45588
26884,45589
26884,45589
26885,45590
26885,45591
26885,45593
26886,45593
26886,45595
26886,45595
26887,45596
26887,45597
26888,45597
26888,45598
26888,45600
26888,45600
26889,45602
26889,45602
26889,45604
26890,45604
26891,45605
26890,45606
26891,45608
26891,45608
26892,45609
26892,45609
26892,45611
26893,45611
26893,45612
26893,45613
26893,45615
26894,45615
26895,45616
26895,45616
26895,45618
26895,45618
26896,45619
26896,45620
26896,45622
26897,45622
26898,45623
26898,45624
26898,45625
26899,45625
26900,45626
26899,45627
26899,45629
26900,45629
26901,45630
26901,45631
26901,45632
26901,45632
26902,45633
26902,45634
26902,45636
26903,45636
26904,45637
26904,45638
26904,45639
26904,45640
26905,45642
26905,45642
26905,45643
26906,45643
26907,45644
26906,45645
26907,45647
26907,45647
26908,45649
26908,45649
26908,45650
26908,45651
26909,45652
26909,45653
26909,45655
26910,45655
26911,45656
26911,45656
26911,45658
26911,45658
26912,45659
26912,45660
26912,45662
26913,45662
26914,45663
26913,45663
26913,45665
26914,45665
26915,45666
26915,45667
26915,45669
26915,45669
26916,45670
26916,45670
26916,45672
26917,45672
26918,45673
26918,45674
26918,45676
26918,45676
26919,45677
26919,45678
26919,45679
26920,45679
26921,45680
26921,45681
26921,45683
26921,45683
26922,45684
26922,45685
26922,45686
26923,45686
26924,45687
26924,45688
26924,45690
26924,45690
26925,45691
26925,45692
26925,45693
26925,45694
26926,45696
26926,45696
26926,45697
26927,45697
26928,45698
26928,45699
26928,45701
26928,45701
26929,45703
26929,45703
26929,45704
26930,45705
26930,45706
26930,45707
26930,45708
26931,45709
26932,45710
26932,45710
26932,45712
26932,45712
26933,45713
26933,45714
26933,45716
26934,45716
26935,45717
26935,45717
26935,45719
26935,45719
26937,45720
26936,45721
26936,45723
26937,45723
26938,45724
26938,45724
26938,45726
26938,45726
26939,45727
26939,45728
26939,45730
26940,45730
26941,45731
26940,45731
26941,45733
26941,45734
26942,45735
26942,45736
26942,45737
26943,45737
26943,45738
26943,45739
26943,45740
26944,45741
26945,45742
26945,45743
26945,45744
26945,45744
26946,45745
26946,45746
26946,45747
26947,45748
26948,45750
26947,45750
26948,45751
26948,45751
26949,45752
26949,45754
26949,45755
26950,45756
26951,45757
26950,45757
26950,45758
26951,45759
26952,45760
26952,45761
26952,45763
26952,45763
26953,45764
26953,45764
26953,45766
26954,45766
26955,45767
26955,45768
26955,45770
26955,45770
26956,45771
26956,45771
26956,45773
26957,45773
26958,45774
26958,45775
26958,45777
26958,45777
26959,45778
26959,45778
26959,45780
26960,45781
26960,45782
26960,45783
26960,45784
26961,45784
26962,45785
26962,45785
26962,45787
26962,45788
26963,45789
26963,45790
26963,45791
26964,45791
26965,45792
26965,45793
26965,45794
26965,45795
26966,45796
26966,45797
26966,45798
26967,45798
26967,45799
26967,45800
26967,45802
26968,45803
26969,45803
26969,45804
26969,45805
26969,45805
26970,45807
26970,45808
26970,45809
26971,45810
26972,45811
26972,45811
26972,45812
26972,45813
26973,45814
26973,45815
26973,45817
26974,45817
26975,45818
26975,45818
" /> 
<polyline style="fill-rule:evenodd;"
points="24880,45732
24874,45740
24869,45748
24862,45755
24854,45763
24847,45769
24840,45774
24827,45781
24812,45786
24807,45788
24801,45789
24793,45790
24783,45790
24773,45791
24763,45791
24754,45790
24747,45790
24744,45789
24726,45784
24710,45777
24695,45768
24683,45757
24672,45744
24663,45729
24657,45713
24655,45707
24654,45698
24653,45687
24652,45676
24652,45664
24653,45653
24654,45644
24655,45640
24660,45622
24668,45606
24678,45592
24691,45580
24704,45569
24720,45561
24738,45555
24741,45555
24756,45552
24773,45552
24790,45553
24807,45555
24814,45557
24827,45562
24840,45568
24852,45576
24863,45586
24871,45596
24877,45604
24879,45608
24852,45621
24844,45625
24837,45628
24832,45631
24828,45633
24826,45633
24825,45633
24825,45632
24823,45630
24821,45627
24816,45620
24809,45613
24801,45607
24798,45606
24792,45604
24783,45603
24774,45603
24765,45604
24758,45605
24749,45610
24741,45617
24735,45627
24730,45638
24727,45651
24725,45667
24725,45671
24726,45687
24729,45701
24733,45713
24740,45723
24748,45731
24757,45736
24769,45739
24773,45739
24786,45739
24798,45737
24809,45732
24818,45725
24825,45716
24825,45715
24828,45711
24830,45708
24831,45707
24832,45708
24836,45710
24841,45712
24848,45716
24856,45719
24856,45719
24880,45732
24880,45732
" /> 
<polyline style="fill-rule:evenodd;"
points="25116,45732
25114,45736
25102,45751
25089,45764
25075,45774
25059,45783
25044,45788
25037,45789
25028,45790
25019,45790
25008,45791
24998,45791
24989,45790
24982,45789
24982,45789
24965,45785
24951,45780
24939,45773
24927,45764
24921,45758
24915,45752
24910,45747
24907,45742
24904,45737
24901,45732
24898,45725
24895,45718
24893,45711
24892,45709
24891,45702
24890,45693
24889,45683
24889,45673
24889,45663
24889,45654
24890,45647
24894,45629
24901,45613
24910,45598
24921,45585
24934,45574
24949,45565
24965,45558
24975,45555
24985,45553
24996,45552
25008,45552
25021,45552
25032,45553
25040,45554
25058,45560
25074,45567
25088,45576
25095,45582
25099,45586
25104,45591
25108,45596
25111,45601
25113,45605
25114,45607
25114,45608
25112,45609
25108,45611
25102,45614
25096,45617
25089,45620
25082,45624
25075,45627
25069,45629
25064,45631
25061,45632
25060,45632
25059,45630
25056,45627
25054,45623
25046,45614
25037,45608
25027,45604
25015,45602
25010,45603
24998,45605
24987,45609
24978,45615
24971,45624
24966,45635
24962,45645
24962,45651
24961,45658
24961,45667
24961,45676
24961,45685
24962,45693
24963,45697
24967,45710
24973,45720
24980,45729
24989,45735
24992,45736
24999,45738
25007,45739
25016,45739
25025,45739
25032,45738
25033,45738
25042,45733
25051,45727
25058,45718
25059,45717
25062,45713
25065,45709
25066,45708
25066,45708
25068,45708
25072,45710
25077,45712
25084,45715
25091,45719
25092,45719
25116,45732
25116,45732
" /> 
<polyline style="fill-rule:evenodd;"
points="26303,45674
26303,45703
26302,45732
26235,45733
26168,45733
26168,45704
26168,45675
26235,45674
26303,45674
26303,45674
" /> 
<polyline style="fill-rule:evenodd;"
points="26591,45676
26591,45676
26589,45675
26587,45672
26584,45668
26588,45672
26590,45674
26591,45676
26591,45676
26591,45676
" /> 
<polyline style="fill-rule:evenodd;"
points="25868,45553
25868,45554
25866,45553
25863,45549
25863,45549
25859,45545
25863,45549
25866,45551
25868,45553
25868,45553
25868,45553
" /> 
<polyline style="fill-rule:evenodd;"
points="38673,34449
38673,34469
38673,34485
38673,34497
38673,34507
38672,34514
38672,34519
38671,34523
38670,34525
38669,34526
38669,34527
38665,34528
38657,34531
38644,34533
38627,34537
38606,34541
38580,34546
38551,34552
38548,34552
38520,34558
38497,34562
38478,34566
38463,34569
38451,34571
38441,34574
38435,34575
38430,34577
38427,34578
38426,34579
38424,34582
38421,34590
38416,34601
38410,34614
38404,34630
38397,34647
38389,34665
38382,34684
38374,34702
38368,34719
38362,34735
38356,34749
38353,34760
38350,34767
38349,34771
38351,34775
38355,34783
38362,34795
38373,34811
38386,34830
38398,34848
38410,34865
38422,34883
38434,34900
38445,34916
38454,34929
38461,34940
38464,34944
38473,34958
38479,34969
38482,34976
38482,34977
38481,34979
38480,34982
38477,34986
38473,34991
38467,34998
38458,35007
38448,35018
38435,35031
38418,35047
38399,35067
38393,35073
38375,35090
38359,35106
38344,35121
38331,35134
38319,35145
38310,35153
38304,35159
38301,35162
38301,35162
38299,35162
38297,35161
38294,35160
38289,35157
38283,35153
38274,35148
38263,35140
38249,35130
38231,35118
38229,35117
38203,35099
38181,35084
38162,35071
38147,35060
38134,35052
38123,35045
38115,35039
38109,35035
38104,35033
38101,35031
38099,35030
38097,35030
38096,35030
38093,35031
38085,35034
38075,35039
38063,35045
38050,35052
38048,35053
38034,35060
38022,35066
38012,35071
38004,35075
38000,35076
38000,35076
37995,35074
37994,35073
37993,35070
37989,35063
37985,35053
37979,35039
37973,35024
37965,35006
37957,34987
37957,34985
37948,34965
37939,34942
37928,34915
37916,34887
37904,34858
37892,34829
37880,34801
37871,34779
37859,34749
37849,34724
37840,34702
37833,34685
37828,34671
37825,34662
37823,34655
37823,34652
37826,34648
37832,34642
37838,34638
37855,34626
37873,34613
37889,34600
37903,34588
37913,34578
37934,34552
37952,34522
37967,34490
37976,34463
37978,34453
37980,34444
37981,34435
37982,34425
37982,34412
37982,34399
37982,34383
37982,34370
37981,34360
37980,34351
37978,34343
37977,34336
37965,34302
37950,34270
37932,34241
37911,34218
37884,34192
37855,34171
37824,34155
37791,34143
37757,34136
37721,34134
37718,34134
37682,34136
37649,34142
37616,34153
37586,34169
37557,34189
37533,34211
37509,34237
37490,34264
37475,34293
37464,34324
37459,34340
37455,34366
37454,34395
37455,34425
37460,34454
37467,34482
37470,34489
37482,34517
37497,34543
37514,34567
37535,34589
37560,34611
37590,34632
37599,34638
37607,34644
37613,34649
37614,34652
37614,34656
37612,34662
37608,34672
37603,34686
37596,34703
37588,34725
37577,34751
37566,34779
37554,34806
37543,34834
37531,34864
37519,34893
37507,34920
37496,34946
37487,34969
37480,34985
37472,35005
37465,35022
37458,35038
37452,35052
37448,35063
37445,35070
37443,35073
37443,35073
37439,35076
37437,35076
37434,35075
37427,35072
37417,35067
37405,35061
37392,35054
37389,35053
37376,35046
37363,35039
37353,35034
37345,35031
37341,35030
37340,35030
37339,35030
37337,35030
37334,35032
37330,35034
37325,35037
37318,35042
37309,35048
37297,35056
37283,35065
37266,35077
37245,35091
37221,35107
37208,35117
37190,35129
37175,35139
37164,35147
37155,35153
37148,35157
37144,35159
37141,35161
37138,35162
37137,35162
37136,35162
37134,35160
37129,35156
37120,35148
37110,35138
37097,35125
37083,35111
37067,35095
37050,35078
37044,35073
37024,35053
37007,35036
36993,35022
36982,35010
36973,35001
36966,34993
36961,34987
36958,34983
36956,34980
36955,34978
36955,34977
36956,34974
36958,34969
36963,34962
36969,34952
36977,34939
36988,34922
37001,34903
37017,34880
37021,34874
37039,34848
37054,34825
37066,34807
37076,34793
37082,34782
37086,34775
37088,34771
37088,34771
37087,34767
37084,34760
37080,34750
37075,34736
37070,34721
37063,34704
37056,34686
37049,34668
37042,34650
37035,34633
37029,34618
37024,34604
37019,34594
37016,34587
37015,34585
37011,34579
37007,34576
37004,34575
36996,34573
36985,34571
36971,34568
36954,34565
36935,34561
36915,34557
36885,34552
36860,34547
36838,34543
36821,34540
36807,34537
36795,34535
36787,34533
36780,34531
36776,34530
36772,34529
36770,34528
36769,34527
36768,34527
36767,34526
36766,34524
36766,34521
36765,34517
36765,34511
36764,34502
36764,34491
36764,34477
36764,34459
36764,34437
36764,34411
36764,34396
36764,34367
36764,34343
36764,34323
36764,34307
36764,34294
36765,34284
36765,34277
36766,34272
36766,34268
36767,34267
36767,34266
36770,34265
36777,34264
36788,34261
36802,34258
36819,34255
36837,34251
36858,34247
36879,34243
36900,34239
36922,34235
36942,34231
36961,34228
36979,34225
36994,34222
37001,34221
37009,34219
37015,34216
37016,34215
37018,34211
37022,34204
37027,34193
37033,34180
37040,34165
37047,34148
37055,34130
37063,34112
37070,34095
37077,34078
37083,34063
37088,34050
37092,34040
37094,34033
37094,34030
37093,34027
37089,34020
37082,34010
37074,33998
37064,33982
37053,33965
37040,33947
37026,33927
37024,33924
37008,33899
36994,33879
36982,33862
36973,33848
36966,33837
36961,33828
36957,33822
36955,33818
36955,33816
36955,33814
36957,33811
36959,33808
36963,33803
36969,33796
36976,33788
36986,33778
36999,33765
37014,33750
37032,33731
37042,33722
37059,33705
37075,33689
37090,33674
37103,33661
37115,33650
37124,33642
37130,33636
37134,33634
37134,33634
37141,33634
37145,33635
37148,33637
37155,33641
37164,33648
37177,33656
37192,33666
37209,33678
37228,33691
37248,33704
37251,33706
37277,33725
37300,33740
37319,33752
37334,33762
37346,33769
37353,33774
37357,33775
37358,33775
37362,33774
37370,33772
37381,33768
37392,33764
37395,33763
37409,33757
37425,33750
37443,33743
37459,33736
37461,33736
37475,33730
37488,33724
37501,33719
37510,33716
37513,33715
37522,33711
37529,33707
37534,33703
37535,33701
37537,33697
37538,33692
37540,33683
37543,33672
37546,33658
37549,33640
37553,33618
37558,33592
37561,33576
37566,33552
37570,33530
37574,33509
37577,33491
37580,33475
37583,33463
37585,33454
37586,33450
37586,33449
37588,33444
37718,33444
37849,33444
37851,33449
37852,33453
37854,33461
37856,33472
37859,33487
37862,33505
37866,33526
37870,33548
37875,33571
37876,33575
37881,33607
37887,33633
37891,33656
37895,33673
37898,33687
37900,33696
37902,33701
37902,33701
37906,33705
37914,33710
37924,33714
37926,33715
37937,33720
37952,33726
37970,33733
37991,33742
38014,33751
38038,33761
38048,33765
38059,33769
38069,33773
38076,33775
38079,33775
38084,33774
38093,33769
38105,33762
38121,33751
38126,33748
38159,33725
38189,33705
38214,33687
38236,33672
38254,33660
38268,33650
38279,33643
38286,33639
38289,33636
38297,33633
38303,33634
38306,33636
38312,33641
38321,33649
38332,33660
38346,33673
38361,33688
38378,33705
38396,33722
38415,33742
38432,33758
38445,33772
38456,33783
38464,33792
38471,33799
38475,33804
38478,33808
38480,33811
38481,33814
38482,33816
38481,33817
38480,33821
38477,33828
38471,33837
38462,33850
38452,33867
38438,33886
38422,33910
38411,33926
38397,33946
38385,33965
38373,33983
38363,33998
38355,34011
38348,34021
38344,34028
38342,34032
38342,34032
38343,34036
38346,34043
38350,34054
38355,34067
38362,34082
38369,34099
38376,34116
38384,34134
38391,34152
38399,34168
38405,34183
38411,34196
38416,34206
38419,34212
38421,34215
38426,34218
38433,34220
38436,34221
38440,34222
38449,34223
38462,34226
38477,34228
38496,34232
38517,34236
38539,34240
38557,34243
38584,34248
38607,34252
38626,34256
38641,34259
38652,34262
38660,34264
38666,34266
38669,34267
38670,34268
38671,34270
38671,34274
38672,34281
38672,34290
38673,34303
38673,34319
38673,34340
38673,34364
38673,34393
38673,34398
38673,34426
38673,34449
38673,34449
" /> 
</g>
<g style="fill:#000000; fill-opacity:0.0; 
stroke:#000000; stroke-width:1; stroke-opacity:1; 
stroke-linecap:round; stroke-linejoin:round;">
</g>
<g style="fill:#000000; fill-opacity:0.0; 
stroke:#000000; stroke-width:59.0551; stroke-opacity:1; 
stroke-linecap:round; stroke-linejoin:round;">
<path d="M46434 40640
L46415 40659
L46359 40678
L46321 40678
L46265 40659
L46228 40621
L46209 40584
L46190 40509
L46190 40453
L46209 40378
L46228 40340
L46265 40303
L46321 40284
L46359 40284
L46415 40303
L46434 40321
" />
<path d="M46809 40678
L46584 40678
" />
<path d="M46696 40678
L46696 40284
L46659 40340
L46621 40378
L46584 40396
" />
<path d="M39140 44065
L39159 44084
L39178 44140
L39178 44178
L39159 44234
L39121 44271
L39084 44290
L39009 44309
L38953 44309
L38878 44290
L38840 44271
L38803 44234
L38784 44178
L38784 44140
L38803 44084
L38821 44065
" />
<path d="M38821 43915
L38803 43896
L38784 43859
L38784 43765
L38803 43728
L38821 43709
L38859 43690
L38896 43690
L38953 43709
L39178 43934
L39178 43690
" />
<path d="M42934 46428
L42915 46446
L42859 46465
L42821 46465
L42765 46446
L42728 46409
L42709 46371
L42690 46296
L42690 46240
L42709 46165
L42728 46128
L42765 46090
L42821 46071
L42859 46071
L42915 46090
L42934 46109
" />
<path d="M43065 46071
L43309 46071
L43178 46221
L43234 46221
L43271 46240
L43290 46259
L43309 46296
L43309 46390
L43290 46428
L43271 46446
L43234 46465
L43121 46465
L43084 46446
L43065 46428
" />
<path d="M39934 46390
L39915 46409
L39859 46428
L39821 46428
L39765 46409
L39728 46371
L39709 46334
L39690 46259
L39690 46203
L39709 46128
L39728 46090
L39765 46053
L39821 46034
L39859 46034
L39915 46053
L39934 46071
" />
<path d="M40271 46165
L40271 46428
" />
<path d="M40178 46015
L40084 46296
L40328 46296
" />
<path d="M36640 40815
L36659 40834
L36678 40890
L36678 40928
L36659 40984
L36621 41021
L36584 41040
L36509 41059
L36453 41059
L36378 41040
L36340 41021
L36303 40984
L36284 40928
L36284 40890
L36303 40834
L36321 40815
" />
<path d="M36284 40459
L36284 40646
L36471 40665
L36453 40646
L36434 40609
L36434 40515
L36453 40478
L36471 40459
L36509 40440
L36603 40440
L36640 40459
L36659 40478
L36678 40515
L36678 40609
L36659 40646
L36640 40665
" />
<path d="M34434 46428
L34415 46446
L34359 46465
L34321 46465
L34265 46446
L34228 46409
L34209 46371
L34190 46296
L34190 46240
L34209 46165
L34228 46128
L34265 46090
L34321 46071
L34359 46071
L34415 46090
L34434 46109
" />
<path d="M34771 46071
L34696 46071
L34659 46090
L34640 46109
L34603 46165
L34584 46240
L34584 46390
L34603 46428
L34621 46446
L34659 46465
L34734 46465
L34771 46446
L34790 46428
L34809 46390
L34809 46296
L34790 46259
L34771 46240
L34734 46221
L34659 46221
L34621 46240
L34603 46259
L34584 46296
" />
<path d="M30640 40565
L30659 40584
L30678 40640
L30678 40678
L30659 40734
L30621 40771
L30584 40790
L30509 40809
L30453 40809
L30378 40790
L30340 40771
L30303 40734
L30284 40678
L30284 40640
L30303 40584
L30321 40565
" />
<path d="M30284 40434
L30284 40171
L30678 40340
" />
<path d="M27434 40140
L27415 40159
L27359 40178
L27321 40178
L27265 40159
L27228 40121
L27209 40084
L27190 40009
L27190 39953
L27209 39878
L27228 39840
L27265 39803
L27321 39784
L27359 39784
L27415 39803
L27434 39821
" />
<path d="M27659 39953
L27621 39934
L27603 39915
L27584 39878
L27584 39859
L27603 39821
L27621 39803
L27659 39784
L27734 39784
L27771 39803
L27790 39821
L27809 39859
L27809 39878
L27790 39915
L27771 39934
L27734 39953
L27659 39953
L27621 39971
L27603 39990
L27584 40028
L27584 40103
L27603 40140
L27621 40159
L27659 40178
L27734 40178
L27771 40159
L27790 40140
L27809 40103
L27809 40028
L27790 39990
L27771 39971
L27734 39953
" />
<path d="M23918 40081
L23899 40100
L23843 40119
L23806 40119
L23749 40100
L23712 40062
L23693 40025
L23674 39950
L23674 39894
L23693 39819
L23712 39781
L23749 39744
L23806 39725
L23843 39725
L23899 39744
L23918 39762
" />
<path d="M24106 40119
L24181 40119
L24218 40100
L24237 40081
L24274 40025
L24293 39950
L24293 39800
L24274 39762
L24256 39744
L24218 39725
L24143 39725
L24106 39744
L24087 39762
L24068 39800
L24068 39894
L24087 39931
L24106 39950
L24143 39969
L24218 39969
L24256 39950
L24274 39931
L24293 39894
" />
<path d="M47928 41540
L47534 41540
L47534 41446
L47553 41390
L47590 41353
L47628 41334
L47703 41315
L47759 41315
L47834 41334
L47871 41353
L47909 41390
L47928 41446
L47928 41540
" />
<path d="M47928 40940
L47928 41165
" />
<path d="M47928 41053
L47534 41053
L47590 41090
L47628 41128
L47646 41165
" />
<path d="M47928 35540
L47534 35540
L47534 35446
L47553 35390
L47590 35353
L47628 35334
L47703 35315
L47759 35315
L47834 35334
L47871 35353
L47909 35390
L47928 35446
L47928 35540
" />
<path d="M47571 35165
L47553 35146
L47534 35109
L47534 35015
L47553 34978
L47571 34959
L47609 34940
L47646 34940
L47703 34959
L47928 35184
L47928 34940
" />
<path d="M50965 33202
L51246 33202
L51302 33220
L51340 33258
L51359 33314
L51359 33352
" />
<path d="M51359 32808
L51359 33033
" />
<path d="M51359 32920
L50965 32920
L51021 32958
L51059 32995
L51077 33033
" />
<path d="M20892 41280
L20892 41561
L20873 41617
L20836 41655
L20779 41674
L20742 41674
" />
<path d="M21061 41317
L21079 41299
L21117 41280
L21211 41280
L21248 41299
L21267 41317
L21286 41355
L21286 41392
L21267 41449
L21042 41674
L21286 41674
" />
<path d="M22122 37131
L22404 37131
L22460 37149
L22497 37187
L22516 37243
L22516 37281
" />
<path d="M22122 36981
L22122 36737
L22272 36868
L22272 36812
L22291 36775
L22310 36756
L22347 36737
L22441 36737
L22479 36756
L22497 36775
L22516 36812
L22516 36925
L22497 36962
L22479 36981
" />
<path d="M50965 43037
L50946 43074
L50909 43112
L50853 43168
L50834 43206
L50834 43243
" />
<path d="M50928 43224
L50909 43262
L50871 43299
L50796 43318
L50665 43318
L50590 43299
L50553 43262
L50534 43224
L50534 43149
L50553 43112
L50590 43074
L50665 43056
L50796 43056
L50871 43074
L50909 43112
L50928 43149
L50928 43224
" />
<path d="M50928 42681
L50928 42906
" />
<path d="M50928 42793
L50534 42793
L50590 42831
L50628 42868
L50646 42906
" />
<path d="M47928 36565
L47740 36696
" />
<path d="M47928 36790
L47534 36790
L47534 36640
L47553 36603
L47571 36584
L47609 36565
L47665 36565
L47703 36584
L47721 36603
L47740 36640
L47740 36790
" />
<path d="M47928 36190
L47928 36415
" />
<path d="M47928 36303
L47534 36303
L47590 36340
L47628 36378
L47646 36415
" />
<path d="M47678 32565
L47490 32696
" />
<path d="M47678 32790
L47284 32790
L47284 32640
L47303 32603
L47321 32584
L47359 32565
L47415 32565
L47453 32584
L47471 32603
L47490 32640
L47490 32790
" />
<path d="M47321 32415
L47303 32396
L47284 32359
L47284 32265
L47303 32228
L47321 32209
L47359 32190
L47396 32190
L47453 32209
L47678 32434
L47678 32190
" />
<path d="M46178 42565
L45990 42696
" />
<path d="M46178 42790
L45784 42790
L45784 42640
L45803 42603
L45821 42584
L45859 42565
L45915 42565
L45953 42584
L45971 42603
L45990 42640
L45990 42790
" />
<path d="M45784 42434
L45784 42190
L45934 42321
L45934 42265
L45953 42228
L45971 42209
L46009 42190
L46103 42190
L46140 42209
L46159 42228
L46178 42265
L46178 42378
L46159 42415
L46140 42434
" />
<path d="M49470 38685
L49489 38629
L49489 38535
L49470 38498
L49451 38479
L49414 38460
L49376 38460
L49339 38479
L49320 38498
L49301 38535
L49282 38610
L49264 38648
L49245 38667
L49207 38685
L49170 38685
L49132 38667
L49114 38648
L49095 38610
L49095 38517
L49114 38460
" />
<path d="M49489 38085
L49489 38310
" />
<path d="M49489 38198
L49095 38198
L49151 38235
L49189 38273
L49207 38310
" />
<path d="M41700 39784
L41700 40103
L41718 40140
L41737 40159
L41775 40178
L41850 40178
L41887 40159
L41906 40140
L41925 40103
L41925 39784
" />
<path d="M42318 40178
L42093 40178
" />
<path d="M42206 40178
L42206 39784
L42168 39840
L42131 39878
L42093 39896
" />
<path d="M33200 39784
L33200 40103
L33218 40140
L33237 40159
L33275 40178
L33350 40178
L33387 40159
L33406 40140
L33425 40103
L33425 39784
" />
<path d="M33593 39821
L33612 39803
L33649 39784
L33743 39784
L33781 39803
L33799 39821
L33818 39859
L33818 39896
L33799 39953
L33574 40178
L33818 40178
" />
<path d="M38734 38034
L38865 38428
L38996 38034
" />
<path d="M39353 38428
L39221 38240
" />
<path d="M39128 38428
L39128 38034
L39278 38034
L39315 38053
L39334 38071
L39353 38109
L39353 38165
L39334 38203
L39315 38221
L39278 38240
L39128 38240
" />
<path d="M39728 38428
L39503 38428
" />
<path d="M39615 38428
L39615 38034
L39578 38090
L39540 38128
L39503 38146
" />
<path d="M35734 38034
L35865 38428
L35996 38034
" />
<path d="M36353 38428
L36221 38240
" />
<path d="M36128 38428
L36128 38034
L36278 38034
L36315 38053
L36334 38071
L36353 38109
L36353 38165
L36334 38203
L36315 38221
L36278 38240
L36128 38240
" />
<path d="M36503 38071
L36521 38053
L36559 38034
L36653 38034
L36690 38053
L36709 38071
L36728 38109
L36728 38146
L36709 38203
L36484 38428
L36728 38428
" />
<path d="M28484 38034
L28615 38428
L28746 38034
" />
<path d="M29103 38428
L28971 38240
" />
<path d="M28878 38428
L28878 38034
L29028 38034
L29065 38053
L29084 38071
L29103 38109
L29103 38165
L29084 38203
L29065 38221
L29028 38240
L28878 38240
" />
<path d="M29234 38034
L29478 38034
L29346 38184
L29403 38184
L29440 38203
L29459 38221
L29478 38259
L29478 38353
L29459 38390
L29440 38409
L29403 38428
L29290 38428
L29253 38409
L29234 38390
" />
</g> 
</svg>
