<?xml version="1.0" standalone="no"?>
 <!DOCTYPE svg PUBLIC "-//W3C//DTD SVG 1.1//EN" 
 "http://www.w3.org/Graphics/SVG/1.1/DTD/svg11.dtd"> 
<svg xmlns="http://www.w3.org/2000/svg" version="1.1" 
    width="10.9677cm" height="5.23748cm" viewBox="0 0 43180 20620 ">
<title>SVG Picture created as AtariPunkConsole-Cmts.User.svg date 2017/06/05 14:58:07 </title>
  <desc>Picture generated by PCBNEW </desc>
<g style="fill:#000000; fill-opacity:1;stroke:#000000; stroke-opacity:1;
stroke-linecap:round; stroke-linejoin:round; "
 transform="translate(0 0) scale(1 1)">
</g>
<g style="fill:#000000; fill-opacity:0.0; 
stroke:#000000; stroke-width:-0.000393701; stroke-opacity:1; 
stroke-linecap:round; stroke-linejoin:round;">
</g>
<g style="fill:#000000; fill-opacity:0.0; 
stroke:#000000; stroke-width:118.11; stroke-opacity:1; 
stroke-linecap:round; stroke-linejoin:round;">
<path d="M19119 19775
L19513 19775
L19260 20365
" />
<path d="M20019 19775
L19738 19775
L19710 20056
L19738 20028
L19794 20000
L19935 20000
L19991 20028
L20019 20056
L20047 20112
L20047 20253
L20019 20309
L19991 20337
L19935 20365
L19794 20365
L19738 20337
L19710 20309
" />
<path d="M20329 20337
L20329 20365
L20300 20421
L20272 20449
" />
<path d="M20694 19775
L20750 19775
L20807 19803
L20835 19831
L20863 19887
L20891 20000
L20891 20140
L20863 20253
L20835 20309
L20807 20337
L20750 20365
L20694 20365
L20638 20337
L20610 20309
L20582 20253
L20553 20140
L20553 20000
L20582 19887
L20610 19831
L20638 19803
L20694 19775
" />
<path d="M21257 19775
L21313 19775
L21369 19803
L21397 19831
L21425 19887
L21453 20000
L21453 20140
L21425 20253
L21397 20309
L21369 20337
L21313 20365
L21257 20365
L21200 20337
L21172 20309
L21144 20253
L21116 20140
L21116 20000
L21144 19887
L21172 19831
L21200 19803
L21257 19775
" />
<path d="M21819 19775
L21875 19775
L21931 19803
L21960 19831
L21988 19887
L22016 20000
L22016 20140
L21988 20253
L21960 20309
L21931 20337
L21875 20365
L21819 20365
L21763 20337
L21735 20309
L21706 20253
L21678 20140
L21678 20000
L21706 19887
L21735 19831
L21763 19803
L21819 19775
" />
<path d="M22719 20365
L22719 19971
" />
<path d="M22719 20028
L22747 20000
L22803 19971
L22888 19971
L22944 20000
L22972 20056
L22972 20365
" />
<path d="M22972 20056
L23000 20000
L23056 19971
L23141 19971
L23197 20000
L23225 20056
L23225 20365
" />
<path d="M23506 20365
L23506 19971
" />
<path d="M23506 20028
L23534 20000
L23591 19971
L23675 19971
L23731 20000
L23759 20056
L23759 20365
" />
<path d="M23759 20056
L23787 20000
L23844 19971
L23928 19971
L23984 20000
L24012 20056
L24012 20365
" />
<path d="M6830 19566
L36358 19566
" />
<path d="M6830 16811
L6830 20629
" />
<path d="M36358 16811
L36358 20629
" />
<path d="M36358 19566
L35914 19797
" />
<path d="M36358 19566
L35914 19336
" />
<path d="M6830 19566
L7274 19797
" />
<path d="M6830 19566
L7274 19336
" />
<path d="M2882 7840
L2882 8205
L2657 8008
L2657 8093
L2629 8149
L2601 8177
L2544 8205
L2404 8205
L2348 8177
L2320 8149
L2291 8093
L2291 7924
L2320 7868
L2348 7840
" />
<path d="M2882 8402
L2882 8768
L2657 8571
L2657 8655
L2629 8712
L2601 8740
L2544 8768
L2404 8768
L2348 8740
L2320 8712
L2291 8655
L2291 8487
L2320 8430
L2348 8402
" />
<path d="M2320 9049
L2291 9049
L2235 9021
L2207 8993
" />
<path d="M2882 9415
L2882 9471
L2854 9527
L2826 9555
L2769 9583
L2657 9611
L2516 9611
L2404 9583
L2348 9555
L2320 9527
L2291 9471
L2291 9415
L2320 9358
L2348 9330
L2404 9302
L2516 9274
L2657 9274
L2769 9302
L2826 9330
L2854 9358
L2882 9415
" />
<path d="M2882 9977
L2882 10033
L2854 10089
L2826 10118
L2769 10146
L2657 10174
L2516 10174
L2404 10146
L2348 10118
L2320 10089
L2291 10033
L2291 9977
L2320 9921
L2348 9893
L2404 9865
L2516 9836
L2657 9836
L2769 9865
L2826 9893
L2854 9921
L2882 9977
" />
<path d="M2882 10539
L2882 10596
L2854 10652
L2826 10680
L2769 10708
L2657 10736
L2516 10736
L2404 10708
L2348 10680
L2320 10652
L2291 10596
L2291 10539
L2320 10483
L2348 10455
L2404 10427
L2516 10399
L2657 10399
L2769 10427
L2826 10455
L2854 10483
L2882 10539
" />
<path d="M2291 11439
L2685 11439
" />
<path d="M2629 11439
L2657 11467
L2685 11524
L2685 11608
L2657 11664
L2601 11692
L2291 11692
" />
<path d="M2601 11692
L2657 11721
L2685 11777
L2685 11861
L2657 11917
L2601 11946
L2291 11946
" />
<path d="M2291 12227
L2685 12227
" />
<path d="M2629 12227
L2657 12255
L2685 12311
L2685 12395
L2657 12452
L2601 12480
L2291 12480
" />
<path d="M2601 12480
L2657 12508
L2685 12564
L2685 12649
L2657 12705
L2601 12733
L2291 12733
" />
<path d="M3090 3818
L3090 16811
" />
<path d="M6830 3818
L2027 3818
" />
<path d="M6830 16811
L2027 16811
" />
<path d="M3090 16811
L2859 16367
" />
<path d="M3090 16811
L3321 16367
" />
<path d="M3090 3818
L2859 4262
" />
<path d="M3090 3818
L3321 4262
" />
<path d="M40756 8149
L40362 8149
" />
<path d="M40981 8008
L40559 7868
L40559 8233
" />
<path d="M40953 8402
L40953 8768
L40728 8571
L40728 8655
L40700 8712
L40672 8740
L40615 8768
L40475 8768
L40419 8740
L40390 8712
L40362 8655
L40362 8487
L40390 8430
L40419 8402
" />
<path d="M40390 9049
L40362 9049
L40306 9021
L40278 8993
" />
<path d="M40953 9415
L40953 9471
L40925 9527
L40897 9555
L40840 9583
L40728 9611
L40587 9611
L40475 9583
L40419 9555
L40390 9527
L40362 9471
L40362 9415
L40390 9358
L40419 9330
L40475 9302
L40587 9274
L40728 9274
L40840 9302
L40897 9330
L40925 9358
L40953 9415
" />
<path d="M40953 9977
L40953 10033
L40925 10089
L40897 10118
L40840 10146
L40728 10174
L40587 10174
L40475 10146
L40419 10118
L40390 10089
L40362 10033
L40362 9977
L40390 9921
L40419 9893
L40475 9865
L40587 9836
L40728 9836
L40840 9865
L40897 9893
L40925 9921
L40953 9977
" />
<path d="M40953 10539
L40953 10596
L40925 10652
L40897 10680
L40840 10708
L40728 10736
L40587 10736
L40475 10708
L40419 10680
L40390 10652
L40362 10596
L40362 10539
L40390 10483
L40419 10455
L40475 10427
L40587 10399
L40728 10399
L40840 10427
L40897 10455
L40925 10483
L40953 10539
" />
<path d="M40362 11439
L40756 11439
" />
<path d="M40700 11439
L40728 11467
L40756 11524
L40756 11608
L40728 11664
L40672 11692
L40362 11692
" />
<path d="M40672 11692
L40728 11721
L40756 11777
L40756 11861
L40728 11917
L40672 11946
L40362 11946
" />
<path d="M40362 12227
L40756 12227
" />
<path d="M40700 12227
L40728 12255
L40756 12311
L40756 12395
L40728 12452
L40672 12480
L40362 12480
" />
<path d="M40672 12480
L40728 12508
L40756 12564
L40756 12649
L40728 12705
L40672 12733
L40362 12733
" />
<path d="M40098 1850
L40098 18779
" />
<path d="M39311 1850
L41161 1850
" />
<path d="M39311 18779
L41161 18779
" />
<path d="M40098 18779
L39867 18336
" />
<path d="M40098 18779
L40329 18336
" />
<path d="M40098 1850
L39867 2293
" />
<path d="M40098 1850
L40329 2293
" />
<path d="M19204 798
L19316 798
L19372 770
L19401 742
L19457 658
L19485 545
L19485 320
L19457 264
L19429 236
L19372 208
L19260 208
L19204 236
L19176 264
L19147 320
L19147 461
L19176 517
L19204 545
L19260 573
L19372 573
L19429 545
L19457 517
L19485 461
" />
<path d="M19850 208
L19907 208
L19963 236
L19991 264
L20019 320
L20047 433
L20047 573
L20019 686
L19991 742
L19963 770
L19907 798
L19850 798
L19794 770
L19766 742
L19738 686
L19710 573
L19710 433
L19738 320
L19766 264
L19794 236
L19850 208
" />
<path d="M20329 770
L20329 798
L20300 854
L20272 883
" />
<path d="M20694 208
L20750 208
L20807 236
L20835 264
L20863 320
L20891 433
L20891 573
L20863 686
L20835 742
L20807 770
L20750 798
L20694 798
L20638 770
L20610 742
L20582 686
L20553 573
L20553 433
L20582 320
L20610 264
L20638 236
L20694 208
" />
<path d="M21257 208
L21313 208
L21369 236
L21397 264
L21425 320
L21453 433
L21453 573
L21425 686
L21397 742
L21369 770
L21313 798
L21257 798
L21200 770
L21172 742
L21144 686
L21116 573
L21116 433
L21144 320
L21172 264
L21200 236
L21257 208
" />
<path d="M21819 208
L21875 208
L21931 236
L21960 264
L21988 320
L22016 433
L22016 573
L21988 686
L21960 742
L21931 770
L21875 798
L21819 798
L21763 770
L21735 742
L21706 686
L21678 573
L21678 433
L21706 320
L21735 264
L21763 236
L21819 208
" />
<path d="M22719 798
L22719 404
" />
<path d="M22719 461
L22747 433
L22803 404
L22888 404
L22944 433
L22972 489
L22972 798
" />
<path d="M22972 489
L23000 433
L23056 404
L23141 404
L23197 433
L23225 489
L23225 798
" />
<path d="M23506 798
L23506 404
" />
<path d="M23506 461
L23534 433
L23591 404
L23675 404
L23731 433
L23759 489
L23759 798
" />
<path d="M23759 489
L23787 433
L23844 404
L23928 404
L23984 433
L24012 489
L24012 798
" />
<path d="M3877 1062
L39311 1062
" />
<path d="M3877 1850
L3877 0
" />
<path d="M39311 1850
L39311 0
" />
<path d="M39311 1062
L38867 1293
" />
<path d="M39311 1062
L38867 832
" />
<path d="M3877 1062
L4321 1293
" />
<path d="M3877 1062
L4321 832
" />
</g>
<g style="fill:#000000; fill-opacity:0.0; 
stroke:#000000; stroke-width:59.0551; stroke-opacity:1; 
stroke-linecap:round; stroke-linejoin:round;">
<path d="M3877 1850
L3877 18779
" />
<path d="M39311 1850
L3877 1850
" />
<path d="M39311 18779
L39311 1850
" />
<path d="M3877 18779
L39311 18779
" />
</g> 
</svg>
