G04 #@! TF.FileFunction,Copper,L1,Top,Signal*
%FSLAX46Y46*%
G04 Gerber Fmt 4.6, Leading zero omitted, Abs format (unit mm)*
G04 Created by KiCad (PCBNEW 4.0.6) date Mon Jul 17 14:07:17 2017*
%MOMM*%
%LPD*%
G01*
G04 APERTURE LIST*
%ADD10C,0.100000*%
%ADD11C,1.500000*%
%ADD12R,1.500000X1.500000*%
%ADD13C,1.600000*%
%ADD14C,1.400000*%
%ADD15R,1.699260X3.299460*%
%ADD16R,1.800000X1.800000*%
%ADD17C,1.800000*%
%ADD18R,2.500000X2.500000*%
%ADD19R,1.800860X0.800100*%
%ADD20R,1.198880X1.501140*%
%ADD21R,2.000000X2.000000*%
%ADD22C,2.000000*%
%ADD23R,1.600000X1.600000*%
%ADD24R,3.500000X3.500000*%
%ADD25C,0.600000*%
%ADD26C,0.635000*%
%ADD27C,0.381000*%
G04 APERTURE END LIST*
D10*
D11*
X118110000Y-96520000D03*
D12*
X118110000Y-99060000D03*
D13*
X99060000Y-109220000D03*
X99060000Y-104140000D03*
X110490000Y-115570000D03*
X107950000Y-115570000D03*
X99060000Y-115570000D03*
X104140000Y-115570000D03*
X92710000Y-106680000D03*
X92710000Y-111760000D03*
X88900000Y-115570000D03*
X86360000Y-115570000D03*
X77470000Y-110490000D03*
X77470000Y-105410000D03*
D14*
X72390000Y-107950000D03*
X67390000Y-107950000D03*
X58420000Y-107950000D03*
X63420000Y-107950000D03*
D15*
X123190000Y-102024180D03*
X123190000Y-107525820D03*
D11*
X123190000Y-88900000D03*
D12*
X123190000Y-86360000D03*
D16*
X127635000Y-86360000D03*
D17*
X127635000Y-88900000D03*
D16*
X48260000Y-105410000D03*
D17*
X50800000Y-105410000D03*
D18*
X54490000Y-91730000D03*
X54490000Y-96230000D03*
X46990000Y-97280000D03*
X46990000Y-90680000D03*
D19*
X127403860Y-105978960D03*
X127403860Y-107381040D03*
X130406140Y-106680000D03*
D20*
X123190000Y-95915480D03*
X123190000Y-93314520D03*
D13*
X118110000Y-89535000D03*
X118110000Y-79375000D03*
X114300000Y-113030000D03*
X114300000Y-102870000D03*
D21*
X129000000Y-97500000D03*
D22*
X129000000Y-100500000D03*
X129000000Y-94500000D03*
D23*
X102870000Y-104140000D03*
D13*
X102870000Y-106680000D03*
X102870000Y-109220000D03*
X102870000Y-111760000D03*
X110490000Y-111760000D03*
X110490000Y-109220000D03*
X110490000Y-106680000D03*
X110490000Y-104140000D03*
D23*
X81280000Y-104140000D03*
D13*
X81280000Y-106680000D03*
X81280000Y-109220000D03*
X81280000Y-111760000D03*
X88900000Y-111760000D03*
X88900000Y-109220000D03*
X88900000Y-106680000D03*
X88900000Y-104140000D03*
D24*
X101680000Y-92060000D03*
D17*
X104180000Y-99060000D03*
X109180000Y-99060000D03*
X106680000Y-99060000D03*
D24*
X111680000Y-92060000D03*
X80090000Y-92060000D03*
D17*
X82590000Y-99060000D03*
X87590000Y-99060000D03*
X85090000Y-99060000D03*
D24*
X90090000Y-92060000D03*
X60040000Y-88060000D03*
D14*
X67040000Y-99060000D03*
X65040000Y-99060000D03*
X69040000Y-99060000D03*
X63040000Y-99060000D03*
X61040000Y-99060000D03*
X71040000Y-99060000D03*
D24*
X72040000Y-88060000D03*
D25*
X105410000Y-109220000D03*
X107950000Y-109220000D03*
X83185000Y-110490000D03*
X86360000Y-110490000D03*
D26*
X123190000Y-93314520D02*
X123190000Y-88900000D01*
X81280000Y-111760000D02*
X80010000Y-111760000D01*
X78740000Y-110490000D02*
X77470000Y-110490000D01*
X80010000Y-111760000D02*
X78740000Y-110490000D01*
X102870000Y-111760000D02*
X101600000Y-111760000D01*
X99060000Y-114300000D02*
X99060000Y-115570000D01*
X101600000Y-111760000D02*
X99060000Y-114300000D01*
X110490000Y-104140000D02*
X106680000Y-104140000D01*
X106680000Y-104140000D02*
X106680000Y-104775000D01*
X106680000Y-99060000D02*
X106680000Y-104775000D01*
X106680000Y-104775000D02*
X106680000Y-110490000D01*
X105410000Y-111760000D02*
X102870000Y-111760000D01*
X106680000Y-110490000D02*
X105410000Y-111760000D01*
X85090000Y-104140000D02*
X86995000Y-104140000D01*
X86995000Y-104140000D02*
X88900000Y-104140000D01*
X85090000Y-99060000D02*
X85090000Y-104140000D01*
X85090000Y-104140000D02*
X85090000Y-106045000D01*
X85090000Y-106045000D02*
X85090000Y-110490000D01*
X85090000Y-110490000D02*
X83820000Y-111760000D01*
X83820000Y-111760000D02*
X81280000Y-111760000D01*
X85090000Y-99060000D02*
X85090000Y-95885000D01*
X104180000Y-99060000D02*
X104180000Y-95885000D01*
X104180000Y-95885000D02*
X104140000Y-95885000D01*
X106680000Y-99060000D02*
X106680000Y-95885000D01*
X82590000Y-99060000D02*
X82590000Y-97115000D01*
X115570000Y-99060000D02*
X118110000Y-99060000D01*
X112395000Y-95885000D02*
X115570000Y-99060000D01*
X83820000Y-95885000D02*
X85090000Y-95885000D01*
X85090000Y-95885000D02*
X104140000Y-95885000D01*
X104140000Y-95885000D02*
X106680000Y-95885000D01*
X106680000Y-95885000D02*
X112395000Y-95885000D01*
X82590000Y-97115000D02*
X83820000Y-95885000D01*
X118110000Y-99060000D02*
X121285000Y-99060000D01*
X118110000Y-89535000D02*
X120015000Y-89535000D01*
X122130820Y-107525820D02*
X123190000Y-107525820D01*
X121285000Y-106680000D02*
X122130820Y-107525820D01*
X121285000Y-90805000D02*
X121285000Y-99060000D01*
X121285000Y-99060000D02*
X121285000Y-106680000D01*
X120015000Y-89535000D02*
X121285000Y-90805000D01*
X127403860Y-107381040D02*
X123334780Y-107381040D01*
X123334780Y-107381040D02*
X123190000Y-107525820D01*
D27*
X110490000Y-109220000D02*
X107950000Y-109220000D01*
X104140000Y-106680000D02*
X102870000Y-106680000D01*
X105410000Y-107950000D02*
X104140000Y-106680000D01*
X105410000Y-109220000D02*
X105410000Y-107950000D01*
X110490000Y-109220000D02*
X113030000Y-109220000D01*
X114300000Y-110490000D02*
X114300000Y-113030000D01*
X113030000Y-109220000D02*
X114300000Y-110490000D01*
X102870000Y-106680000D02*
X99695000Y-106680000D01*
X99695000Y-106680000D02*
X99060000Y-107315000D01*
X99060000Y-107315000D02*
X99060000Y-109220000D01*
X110490000Y-115570000D02*
X110490000Y-111760000D01*
X88900000Y-109220000D02*
X88900000Y-106680000D01*
X87590000Y-99060000D02*
X90805000Y-99060000D01*
X92710000Y-100965000D02*
X92710000Y-106680000D01*
X90805000Y-99060000D02*
X92710000Y-100965000D01*
X92710000Y-106680000D02*
X88900000Y-106680000D01*
X88900000Y-111760000D02*
X88900000Y-115570000D01*
X75565000Y-107950000D02*
X75565000Y-108585000D01*
X60325000Y-109855000D02*
X58420000Y-107950000D01*
X74295000Y-109855000D02*
X60325000Y-109855000D01*
X75565000Y-108585000D02*
X74295000Y-109855000D01*
X72390000Y-107950000D02*
X75565000Y-107950000D01*
D26*
X75565000Y-107950000D02*
X78740000Y-107950000D01*
X78740000Y-107950000D02*
X80010000Y-109220000D01*
X80010000Y-109220000D02*
X81280000Y-109220000D01*
D27*
X67040000Y-99060000D02*
X65040000Y-99060000D01*
X67390000Y-107950000D02*
X67390000Y-99410000D01*
X67390000Y-99410000D02*
X67040000Y-99060000D01*
X63040000Y-99060000D02*
X61040000Y-99060000D01*
X63420000Y-107950000D02*
X63420000Y-99440000D01*
X63420000Y-99440000D02*
X63040000Y-99060000D01*
D26*
X127403860Y-105978960D02*
X127403860Y-104543860D01*
X124884180Y-102024180D02*
X123190000Y-102024180D01*
X127403860Y-104543860D02*
X124884180Y-102024180D01*
X123190000Y-95915480D02*
X123190000Y-102024180D01*
D27*
X118110000Y-79375000D02*
X118110000Y-85090000D01*
X119380000Y-86360000D02*
X123190000Y-86360000D01*
X118110000Y-85090000D02*
X119380000Y-86360000D01*
D26*
X127635000Y-86360000D02*
X129540000Y-86360000D01*
X130175000Y-93325000D02*
X129000000Y-94500000D01*
X130175000Y-86995000D02*
X130175000Y-93325000D01*
X129540000Y-86360000D02*
X130175000Y-86995000D01*
D27*
X46990000Y-97280000D02*
X46990000Y-101600000D01*
X48260000Y-102870000D02*
X48260000Y-105410000D01*
X46990000Y-101600000D02*
X48260000Y-102870000D01*
X48260000Y-93980000D02*
X46990000Y-95250000D01*
X46990000Y-95250000D02*
X46990000Y-97280000D01*
X69040000Y-99060000D02*
X69040000Y-97615000D01*
X46990000Y-92710000D02*
X46990000Y-90680000D01*
X48260000Y-93980000D02*
X46990000Y-92710000D01*
X65405000Y-93980000D02*
X48260000Y-93980000D01*
X69040000Y-97615000D02*
X65405000Y-93980000D01*
X54490000Y-91730000D02*
X65060000Y-91730000D01*
X71040000Y-97710000D02*
X71040000Y-99060000D01*
X65060000Y-91730000D02*
X71040000Y-97710000D01*
D26*
X129000000Y-97500000D02*
X129885000Y-97500000D01*
X129885000Y-97500000D02*
X131445000Y-99060000D01*
X131445000Y-99060000D02*
X131445000Y-104140000D01*
X131445000Y-104140000D02*
X130406140Y-105178860D01*
X130406140Y-105178860D02*
X130406140Y-106680000D01*
D27*
X114300000Y-102870000D02*
X114300000Y-105410000D01*
X113030000Y-106680000D02*
X110490000Y-106680000D01*
X114300000Y-105410000D02*
X113030000Y-106680000D01*
X109180000Y-99060000D02*
X110490000Y-99060000D01*
X110490000Y-99060000D02*
X114300000Y-102870000D01*
X102870000Y-109220000D02*
X102235000Y-109220000D01*
X83185000Y-107950000D02*
X81915000Y-106680000D01*
X83185000Y-110490000D02*
X83185000Y-107950000D01*
X95885000Y-110490000D02*
X86360000Y-110490000D01*
X96520000Y-111125000D02*
X95885000Y-110490000D01*
X100330000Y-111125000D02*
X96520000Y-111125000D01*
X102235000Y-109220000D02*
X100330000Y-111125000D01*
X81915000Y-106680000D02*
X81280000Y-106680000D01*
M02*
