G04 #@! TF.FileFunction,Soldermask,Bot*
%FSLAX46Y46*%
G04 Gerber Fmt 4.6, Leading zero omitted, Abs format (unit mm)*
G04 Created by KiCad (PCBNEW 4.0.6) date Mon Jul 17 14:07:17 2017*
%MOMM*%
%LPD*%
G01*
G04 APERTURE LIST*
%ADD10C,0.100000*%
%ADD11C,3.900000*%
%ADD12C,1.900000*%
%ADD13R,1.900000X1.900000*%
%ADD14C,2.000000*%
%ADD15C,1.800000*%
%ADD16R,2.200000X2.200000*%
%ADD17C,2.200000*%
%ADD18R,2.900000X2.900000*%
%ADD19C,1.650000*%
%ADD20R,2.400000X2.400000*%
%ADD21C,2.400000*%
%ADD22R,2.000000X2.000000*%
%ADD23R,3.900000X3.900000*%
G04 APERTURE END LIST*
D10*
D11*
X125500000Y-81000000D03*
X50500000Y-81000000D03*
X50500000Y-114000000D03*
D12*
X118110000Y-96520000D03*
D13*
X118110000Y-99060000D03*
D14*
X99060000Y-109220000D03*
X99060000Y-104140000D03*
X110490000Y-115570000D03*
X107950000Y-115570000D03*
X99060000Y-115570000D03*
X104140000Y-115570000D03*
X92710000Y-106680000D03*
X92710000Y-111760000D03*
X88900000Y-115570000D03*
X86360000Y-115570000D03*
X77470000Y-110490000D03*
X77470000Y-105410000D03*
D15*
X72390000Y-107950000D03*
X67390000Y-107950000D03*
X58420000Y-107950000D03*
X63420000Y-107950000D03*
D12*
X123190000Y-88900000D03*
D13*
X123190000Y-86360000D03*
D16*
X127635000Y-86360000D03*
D17*
X127635000Y-88900000D03*
D16*
X48260000Y-105410000D03*
D17*
X50800000Y-105410000D03*
D18*
X54490000Y-91730000D03*
X54490000Y-96230000D03*
D19*
X50490000Y-91480000D03*
X50490000Y-96480000D03*
D18*
X46990000Y-97280000D03*
X46990000Y-90680000D03*
D14*
X118110000Y-89535000D03*
X118110000Y-79375000D03*
X114300000Y-113030000D03*
X114300000Y-102870000D03*
D20*
X129000000Y-97500000D03*
D21*
X129000000Y-100500000D03*
X129000000Y-94500000D03*
D22*
X102870000Y-104140000D03*
D14*
X102870000Y-106680000D03*
X102870000Y-109220000D03*
X102870000Y-111760000D03*
X110490000Y-111760000D03*
X110490000Y-109220000D03*
X110490000Y-106680000D03*
X110490000Y-104140000D03*
D22*
X81280000Y-104140000D03*
D14*
X81280000Y-106680000D03*
X81280000Y-109220000D03*
X81280000Y-111760000D03*
X88900000Y-111760000D03*
X88900000Y-109220000D03*
X88900000Y-106680000D03*
X88900000Y-104140000D03*
D23*
X101680000Y-92060000D03*
D17*
X104180000Y-99060000D03*
X109180000Y-99060000D03*
X106680000Y-99060000D03*
D23*
X111680000Y-92060000D03*
X80090000Y-92060000D03*
D17*
X82590000Y-99060000D03*
X87590000Y-99060000D03*
X85090000Y-99060000D03*
D23*
X90090000Y-92060000D03*
X60040000Y-88060000D03*
D15*
X67040000Y-99060000D03*
X65040000Y-99060000D03*
X69040000Y-99060000D03*
X63040000Y-99060000D03*
X61040000Y-99060000D03*
X71040000Y-99060000D03*
D23*
X72040000Y-88060000D03*
D11*
X125500000Y-114000000D03*
M02*
