G04 #@! TF.FileFunction,Copper,L2,Bot,Signal*
%FSLAX46Y46*%
G04 Gerber Fmt 4.6, Leading zero omitted, Abs format (unit mm)*
G04 Created by KiCad (PCBNEW 4.0.6) date Mon Jul 17 14:07:17 2017*
%MOMM*%
%LPD*%
G01*
G04 APERTURE LIST*
%ADD10C,0.100000*%
%ADD11C,1.500000*%
%ADD12R,1.500000X1.500000*%
%ADD13C,1.600000*%
%ADD14C,1.400000*%
%ADD15R,1.800000X1.800000*%
%ADD16C,1.800000*%
%ADD17R,2.500000X2.500000*%
%ADD18R,2.000000X2.000000*%
%ADD19C,2.000000*%
%ADD20R,1.600000X1.600000*%
%ADD21R,3.500000X3.500000*%
%ADD22C,0.600000*%
%ADD23C,0.635000*%
%ADD24C,0.889000*%
%ADD25C,0.381000*%
G04 APERTURE END LIST*
D10*
D11*
X118110000Y-96520000D03*
D12*
X118110000Y-99060000D03*
D13*
X99060000Y-109220000D03*
X99060000Y-104140000D03*
X110490000Y-115570000D03*
X107950000Y-115570000D03*
X99060000Y-115570000D03*
X104140000Y-115570000D03*
X92710000Y-106680000D03*
X92710000Y-111760000D03*
X88900000Y-115570000D03*
X86360000Y-115570000D03*
X77470000Y-110490000D03*
X77470000Y-105410000D03*
D14*
X72390000Y-107950000D03*
X67390000Y-107950000D03*
X58420000Y-107950000D03*
X63420000Y-107950000D03*
D11*
X123190000Y-88900000D03*
D12*
X123190000Y-86360000D03*
D15*
X127635000Y-86360000D03*
D16*
X127635000Y-88900000D03*
D15*
X48260000Y-105410000D03*
D16*
X50800000Y-105410000D03*
D17*
X54490000Y-91730000D03*
X54490000Y-96230000D03*
X46990000Y-97280000D03*
X46990000Y-90680000D03*
D13*
X118110000Y-89535000D03*
X118110000Y-79375000D03*
X114300000Y-113030000D03*
X114300000Y-102870000D03*
D18*
X129000000Y-97500000D03*
D19*
X129000000Y-100500000D03*
X129000000Y-94500000D03*
D20*
X102870000Y-104140000D03*
D13*
X102870000Y-106680000D03*
X102870000Y-109220000D03*
X102870000Y-111760000D03*
X110490000Y-111760000D03*
X110490000Y-109220000D03*
X110490000Y-106680000D03*
X110490000Y-104140000D03*
D20*
X81280000Y-104140000D03*
D13*
X81280000Y-106680000D03*
X81280000Y-109220000D03*
X81280000Y-111760000D03*
X88900000Y-111760000D03*
X88900000Y-109220000D03*
X88900000Y-106680000D03*
X88900000Y-104140000D03*
D21*
X101680000Y-92060000D03*
D16*
X104180000Y-99060000D03*
X109180000Y-99060000D03*
X106680000Y-99060000D03*
D21*
X111680000Y-92060000D03*
X80090000Y-92060000D03*
D16*
X82590000Y-99060000D03*
X87590000Y-99060000D03*
X85090000Y-99060000D03*
D21*
X90090000Y-92060000D03*
X60040000Y-88060000D03*
D14*
X67040000Y-99060000D03*
X65040000Y-99060000D03*
X69040000Y-99060000D03*
X63040000Y-99060000D03*
X61040000Y-99060000D03*
X71040000Y-99060000D03*
D21*
X72040000Y-88060000D03*
D22*
X105410000Y-109220000D03*
X107950000Y-109220000D03*
X83185000Y-110490000D03*
X86360000Y-110490000D03*
D23*
X54490000Y-96230000D02*
X94960000Y-96230000D01*
X94960000Y-96230000D02*
X95250000Y-96520000D01*
X50800000Y-105410000D02*
X50800000Y-102870000D01*
X54490000Y-99180000D02*
X54490000Y-96230000D01*
X50800000Y-102870000D02*
X54490000Y-99180000D01*
X79375000Y-104140000D02*
X79375000Y-102235000D01*
X79375000Y-102235000D02*
X80010000Y-101600000D01*
X80010000Y-101600000D02*
X90170000Y-101600000D01*
X90170000Y-101600000D02*
X95250000Y-96520000D01*
X100965000Y-104140000D02*
X100965000Y-102235000D01*
X100965000Y-102235000D02*
X95250000Y-96520000D01*
D24*
X95250000Y-96520000D02*
X118110000Y-96520000D01*
D23*
X86360000Y-115570000D02*
X86360000Y-114300000D01*
X90805000Y-113665000D02*
X92710000Y-111760000D01*
X86995000Y-113665000D02*
X90805000Y-113665000D01*
X86360000Y-114300000D02*
X86995000Y-113665000D01*
X79375000Y-104140000D02*
X79375000Y-113665000D01*
X81280000Y-115570000D02*
X86360000Y-115570000D01*
X79375000Y-113665000D02*
X81280000Y-115570000D01*
X77470000Y-105410000D02*
X78105000Y-105410000D01*
X78105000Y-105410000D02*
X79375000Y-104140000D01*
X79375000Y-104140000D02*
X81280000Y-104140000D01*
X104140000Y-115570000D02*
X107950000Y-115570000D01*
X100965000Y-104140000D02*
X100965000Y-114300000D01*
X102235000Y-115570000D02*
X104140000Y-115570000D01*
X100965000Y-114300000D02*
X102235000Y-115570000D01*
X102870000Y-104140000D02*
X100965000Y-104140000D01*
X100965000Y-104140000D02*
X99060000Y-104140000D01*
D24*
X118110000Y-96520000D02*
X120650000Y-96520000D01*
X120650000Y-96520000D02*
X123190000Y-93980000D01*
X123190000Y-93980000D02*
X123190000Y-88900000D01*
X127635000Y-88900000D02*
X123190000Y-88900000D01*
D25*
X107950000Y-109220000D02*
X105410000Y-109220000D01*
X86360000Y-110490000D02*
X83185000Y-110490000D01*
M02*
