M48
;DRILL file {KiCad 4.0.6} date Mon Jul 17 14:07:23 2017
;FORMAT={-:-/ absolute / metric / decimal}
FMAT,2
METRIC,TZ
T1C0.400
T2C0.800
T3C0.900
T4C1.000
T5C1.500
T6C2.500
%
G90
G05
M71
T1
X83.185Y-110.49
X86.36Y-110.49
X105.41Y-109.22
X107.95Y-109.22
T2
X58.42Y-107.95
X61.04Y-99.06
X63.04Y-99.06
X63.42Y-107.95
X65.04Y-99.06
X67.04Y-99.06
X67.39Y-107.95
X69.04Y-99.06
X71.04Y-99.06
X72.39Y-107.95
X77.47Y-105.41
X77.47Y-110.49
X81.28Y-104.14
X81.28Y-106.68
X81.28Y-109.22
X81.28Y-111.76
X86.36Y-115.57
X88.9Y-104.14
X88.9Y-106.68
X88.9Y-109.22
X88.9Y-111.76
X88.9Y-115.57
X92.71Y-106.68
X92.71Y-111.76
X99.06Y-104.14
X99.06Y-109.22
X99.06Y-115.57
X102.87Y-104.14
X102.87Y-106.68
X102.87Y-109.22
X102.87Y-111.76
X104.14Y-115.57
X107.95Y-115.57
X110.49Y-104.14
X110.49Y-106.68
X110.49Y-109.22
X110.49Y-111.76
X110.49Y-115.57
X114.3Y-102.87
X114.3Y-113.03
X118.11Y-79.375
X118.11Y-89.535
X118.11Y-96.52
X118.11Y-99.06
X123.19Y-86.36
X123.19Y-88.9
T3
X48.26Y-105.41
X50.8Y-105.41
X127.635Y-86.36
X127.635Y-88.9
T4
X82.59Y-99.06
X85.09Y-99.06
X87.59Y-99.06
X104.18Y-99.06
X106.68Y-99.06
X109.18Y-99.06
X129.Y-94.5
X129.Y-97.5
X129.Y-100.5
T5
X46.99Y-90.68
X46.99Y-97.28
X54.49Y-91.73
X54.49Y-96.23
T6
X60.04Y-88.06
X72.04Y-88.06
X80.09Y-92.06
X90.09Y-92.06
X101.68Y-92.06
X111.68Y-92.06
T0
M30
